<svg width="81" height="21" viewBox="0 0 81 21" fill="none" xmlns="http://www.w3.org/2000/svg">
<path fill-rule="evenodd" clip-rule="evenodd" d="M22.7153 1.52139H25.1888V4.42229H22.7153V1.52139ZM0 19.1452V5.37179C0 3.13499 1.5217 1.54069 4.2102 1.54069H4.7802V3.80169C3.3069 3.80169 2.4734 4.25339 2.4734 5.37179V5.96599H4.7802V8.22709H2.4734V19.1452H0ZM8.2751 1.54069H5.8016V19.1425H8.2751V1.54069ZM18.8627 13.0772C18.8627 15.6232 17.6959 17.2175 15.4133 17.2175C13.1308 17.2175 12.1307 15.876 12.1307 13.1256V5.96599H9.6572V13.3165C9.6572 17.9542 12.3215 19.4786 15.1499 19.4786C16.8867 19.4786 18.3761 18.836 19.0294 17.7176H19.0751V19.1452H21.3362V5.97139H18.8627V13.0772ZM25.1888 5.94439H22.7153V19.1236H25.1888V5.94439ZM37.8572 1.54069V7.58449H37.8088C36.7334 6.24019 35.0503 5.60839 33.2678 5.60839C29.3426 5.60839 26.4874 8.67869 26.4874 12.6981C26.4874 16.575 29.5093 19.4786 33.3377 19.4786C35.2654 19.4786 36.978 18.6935 37.9997 17.2659H38.0507V19.1479H40.3333V1.54069H37.8572ZM33.4557 17.2198C30.9822 17.2198 28.9604 15.069 28.9604 12.5821C28.9604 9.98769 30.9338 7.87179 33.4557 7.87179C36.2383 7.87179 38.0477 9.98769 38.0477 12.6762C38.0168 15.1916 35.9712 17.2156 33.4557 17.2198Z" fill="#101828"/>
<path fill-rule="evenodd" clip-rule="evenodd" d="M51.2353 0C48.5283 0 46.3333 2.1949 46.3333 4.9024V16.0976C46.3333 18.8051 48.5283 21 51.2353 21H75.4313C78.1383 21 80.3333 18.8051 80.3333 16.0976V4.9024C80.3333 2.1949 78.1383 0 75.4313 0H51.2353ZM51.0523 3.1364V15.5H53.2923V11.3224H55.6593C56.6123 11.3224 57.4153 11.1474 58.0673 10.7972C58.7193 10.4431 59.2123 9.9581 59.5463 9.3423C59.8803 8.7266 60.0473 8.0223 60.0473 7.2294C60.0473 6.4446 59.8803 5.7443 59.5463 5.1286C59.2163 4.5088 58.7273 4.0218 58.0793 3.6676C57.4353 3.3134 56.6393 3.1364 55.6893 3.1364H51.0523ZM53.2923 9.4812H55.3573C55.9123 9.4812 56.3673 9.3846 56.7213 9.1914C57.0753 8.9982 57.3373 8.7326 57.5063 8.3945C57.6793 8.0565 57.7653 7.6681 57.7653 7.2294C57.7653 6.7907 57.6793 6.4044 57.5063 6.0703C57.3373 5.7363 57.0733 5.4767 56.7153 5.2915C56.3613 5.1024 55.9043 5.0078 55.3453 5.0078H53.2923V9.4812ZM61.8113 15.3732C62.2823 15.5825 62.8123 15.6871 63.3993 15.6871C63.8823 15.6871 64.3033 15.6207 64.6613 15.4879C65.0233 15.3511 65.3233 15.172 65.5603 14.9506C65.8023 14.7253 65.9893 14.4838 66.1223 14.2262H66.1943V15.5H68.2953V9.294C68.2953 8.6783 68.1823 8.1651 67.9573 7.7546C67.7363 7.3441 67.4423 7.0201 67.0763 6.7827C66.7093 6.5412 66.3053 6.3681 65.8623 6.2635C65.4193 6.1589 64.9753 6.1065 64.5283 6.1065C63.8803 6.1065 63.2883 6.2031 62.7533 6.3963C62.2183 6.5855 61.7653 6.8712 61.3953 7.2536C61.0253 7.6319 60.7593 8.1027 60.5983 8.6662L62.6383 8.956C62.7473 8.638 62.9563 8.3623 63.2663 8.1289C63.5803 7.8955 64.0053 7.7788 64.5403 7.7788C65.0473 7.7788 65.4363 7.9035 65.7053 8.1531C65.9753 8.4026 66.1103 8.7547 66.1103 9.2095V9.2457C66.1103 9.455 66.0313 9.61 65.8743 9.7106C65.7213 9.8072 65.4763 9.8796 65.1383 9.9279C64.8003 9.9722 64.3593 10.0225 63.8163 10.0788C63.3653 10.1271 62.9283 10.2056 62.5063 10.3143C62.0873 10.4189 61.7113 10.5739 61.3773 10.7791C61.0433 10.9844 60.7793 11.258 60.5863 11.6001C60.3933 11.9422 60.2963 12.3749 60.2963 12.8981C60.2963 13.5058 60.4313 14.0169 60.7013 14.4315C60.9743 14.846 61.3453 15.1599 61.8113 15.3732ZM65.1083 13.8217C64.7863 13.9948 64.4053 14.0813 63.9673 14.0813C63.5123 14.0813 63.1373 13.9787 62.8443 13.7734C62.5503 13.5682 62.4033 13.2643 62.4033 12.8619C62.4033 12.5801 62.4773 12.3507 62.6263 12.1737C62.7753 11.9925 62.9793 11.8517 63.2363 11.7511C63.4943 11.6504 63.7853 11.578 64.1113 11.5337C64.2563 11.5136 64.4273 11.4895 64.6253 11.4613C64.8223 11.4331 65.0213 11.4009 65.2223 11.3647C65.4233 11.3285 65.6053 11.2862 65.7663 11.2379C65.9313 11.1896 66.0473 11.1373 66.1163 11.081V12.1737C66.1163 12.5157 66.0273 12.8317 65.8503 13.1214C65.6773 13.4112 65.4303 13.6446 65.1083 13.8217ZM69.6923 18.9048C69.9463 18.9531 70.2223 18.9773 70.5193 18.9773C71.0913 18.9773 71.5823 18.8827 71.9923 18.6935C72.4073 18.5084 72.7573 18.2388 73.0433 17.8846C73.3293 17.5344 73.5583 17.1139 73.7313 16.6229L77.4443 6.2273H75.1193L72.9763 13.2301H72.8803L70.7433 6.2273H68.4253L71.7873 15.6932L71.6003 16.1942C71.4673 16.5444 71.3043 16.7939 71.1113 16.9428C70.9223 17.0958 70.7023 17.1742 70.4533 17.1783C70.2033 17.1823 69.9203 17.138 69.6023 17.0455L69.0953 18.7479C69.2443 18.8082 69.4433 18.8606 69.6923 18.9048Z" fill="#101828"/>
</svg>
