<svg width="74" height="18" viewBox="0 0 81 21" fill="none" xmlns="http://www.w3.org/2000/svg">
<path fill-rule="evenodd" clip-rule="evenodd" d="M23.382 1.52139H25.8555V4.42229H23.382V1.52139ZM0.666687 19.1452V5.37179C0.666687 3.13499 2.18839 1.54069 4.87689 1.54069H5.44689V3.80169C3.97359 3.80169 3.14009 4.25339 3.14009 5.37179V5.96599H5.44689V8.22709H3.14009V19.1452H0.666687ZM8.94179 1.54069H6.46829V19.1425H8.94179V1.54069ZM19.5294 13.0772C19.5294 15.6232 18.3626 17.2175 16.08 17.2175C13.7975 17.2175 12.7974 15.876 12.7974 13.1256V5.96599H10.3239V13.3165C10.3239 17.9542 12.9882 19.4786 15.8166 19.4786C17.5534 19.4786 19.0428 18.836 19.6961 17.7176H19.7418V19.1452H22.0029V5.97139H19.5294V13.0772ZM25.8555 5.94439H23.382V19.1236H25.8555V5.94439ZM38.5239 1.54069V7.58449H38.4755C37.4001 6.24019 35.717 5.60839 33.9345 5.60839C30.0093 5.60839 27.1541 8.67869 27.1541 12.6981C27.1541 16.575 30.176 19.4786 34.0044 19.4786C35.9321 19.4786 37.6447 18.6935 38.6664 17.2659H38.7174V19.1479H41V1.54069H38.5239ZM34.1224 17.2198C31.6489 17.2198 29.6271 15.069 29.6271 12.5821C29.6271 9.98769 31.6005 7.87179 34.1224 7.87179C36.905 7.87179 38.7144 9.98769 38.7144 12.6762C38.6835 15.1916 36.6379 17.2156 34.1224 17.2198Z" fill="white"/>
<path fill-rule="evenodd" clip-rule="evenodd" d="M51.902 0C49.195 0 47 2.1949 47 4.9024V16.0976C47 18.8051 49.195 21 51.902 21H76.098C78.805 21 81 18.8051 81 16.0976V4.9024C81 2.1949 78.805 0 76.098 0H51.902ZM51.719 3.1364V15.5H53.959V11.3224H56.326C57.279 11.3224 58.082 11.1474 58.734 10.7972C59.386 10.4431 59.879 9.9581 60.213 9.3423C60.547 8.7266 60.714 8.0223 60.714 7.2294C60.714 6.4446 60.547 5.7443 60.213 5.1286C59.883 4.5088 59.394 4.0218 58.746 3.6676C58.102 3.3134 57.306 3.1364 56.356 3.1364H51.719ZM53.959 9.4812H56.024C56.579 9.4812 57.034 9.3846 57.388 9.1914C57.742 8.9982 58.004 8.7326 58.173 8.3945C58.346 8.0565 58.432 7.6681 58.432 7.2294C58.432 6.7907 58.346 6.4044 58.173 6.0703C58.004 5.7363 57.74 5.4767 57.382 5.2915C57.028 5.1024 56.571 5.0078 56.012 5.0078H53.959V9.4812ZM62.478 15.3732C62.949 15.5825 63.479 15.6871 64.066 15.6871C64.549 15.6871 64.97 15.6207 65.328 15.4879C65.69 15.3511 65.99 15.172 66.227 14.9506C66.469 14.7253 66.656 14.4838 66.789 14.2262H66.861V15.5H68.962V9.294C68.962 8.6783 68.849 8.1651 68.624 7.7546C68.403 7.3441 68.109 7.0201 67.743 6.7827C67.376 6.5412 66.972 6.3681 66.529 6.2635C66.086 6.1589 65.642 6.1065 65.195 6.1065C64.547 6.1065 63.955 6.2031 63.42 6.3963C62.885 6.5855 62.432 6.8712 62.062 7.2536C61.692 7.6319 61.426 8.1027 61.265 8.6662L63.305 8.956C63.414 8.638 63.623 8.3623 63.933 8.1289C64.247 7.8955 64.672 7.7788 65.207 7.7788C65.714 7.7788 66.103 7.9035 66.372 8.1531C66.642 8.4026 66.777 8.7547 66.777 9.2095V9.2457C66.777 9.455 66.698 9.61 66.541 9.7106C66.388 9.8072 66.143 9.8796 65.805 9.9279C65.467 9.9722 65.026 10.0225 64.483 10.0788C64.032 10.1271 63.595 10.2056 63.173 10.3143C62.754 10.4189 62.378 10.5739 62.044 10.7791C61.71 10.9844 61.446 11.258 61.253 11.6001C61.06 11.9422 60.963 12.3749 60.963 12.8981C60.963 13.5058 61.098 14.0169 61.368 14.4315C61.641 14.846 62.012 15.1599 62.478 15.3732ZM65.775 13.8217C65.453 13.9948 65.072 14.0813 64.634 14.0813C64.179 14.0813 63.804 13.9787 63.511 13.7734C63.217 13.5682 63.07 13.2643 63.07 12.8619C63.07 12.5801 63.144 12.3507 63.293 12.1737C63.442 11.9925 63.646 11.8517 63.903 11.7511C64.161 11.6504 64.452 11.578 64.778 11.5337C64.923 11.5136 65.094 11.4895 65.292 11.4613C65.489 11.4331 65.688 11.4009 65.889 11.3647C66.09 11.3285 66.272 11.2862 66.433 11.2379C66.598 11.1896 66.714 11.1373 66.783 11.081V12.1737C66.783 12.5157 66.694 12.8317 66.517 13.1214C66.344 13.4112 66.097 13.6446 65.775 13.8217ZM70.359 18.9048C70.613 18.9531 70.889 18.9773 71.186 18.9773C71.758 18.9773 72.249 18.8827 72.659 18.6935C73.074 18.5084 73.424 18.2388 73.71 17.8846C73.996 17.5344 74.225 17.1139 74.398 16.6229L78.111 6.2273H75.786L73.643 13.2301H73.547L71.41 6.2273H69.092L72.454 15.6932L72.267 16.1942C72.134 16.5444 71.971 16.7939 71.778 16.9428C71.589 17.0958 71.369 17.1742 71.12 17.1783C70.87 17.1823 70.587 17.138 70.269 17.0455L69.762 18.7479C69.911 18.8082 70.11 18.8606 70.359 18.9048Z" fill="white"/>
</svg>
