<svg width="53" height="18" viewBox="0 0 61 24" fill="none" xmlns="http://www.w3.org/2000/svg">
<path fill-rule="evenodd" clip-rule="evenodd" d="M28.139 18.766V11.7229H31.8988C33.4395 11.7229 34.7399 11.2237 35.8 10.2394L36.0544 9.9898C37.9909 7.95171 37.8637 4.77673 35.8 2.89116C34.7682 1.89291 33.3547 1.35219 31.8988 1.37992H25.8633V18.766H28.139ZM28.1396 9.58917V3.5165H31.9566C32.7766 3.5165 33.5541 3.82152 34.1337 4.3761C35.3636 5.54072 35.3919 7.48176 34.2044 8.68797C33.6248 9.28415 32.8049 9.6169 31.9566 9.58917H28.1396ZM46.6695 7.79887C45.6942 6.9254 44.3656 6.48174 42.6835 6.48174C40.5209 6.48174 38.8954 7.25815 37.8212 8.79711L39.8283 10.0311C40.5633 8.97735 41.5669 8.4505 42.839 8.4505C43.6447 8.4505 44.4221 8.74166 45.0299 9.26851C45.6236 9.76763 45.9628 10.4886 45.9628 11.2511V11.7641C45.0864 11.2927 43.9839 11.0432 42.627 11.0432C41.0439 11.0432 39.7718 11.4036 38.8248 12.1385C37.8777 12.8733 37.3971 13.8438 37.3971 15.0777C37.3689 16.2008 37.8636 17.2683 38.7399 17.9893C39.6304 18.7657 40.7612 19.1539 42.0899 19.1539C43.6588 19.1539 44.9027 18.4746 45.8497 17.1158H45.9487V18.7657H48.1254V11.4314C48.1254 9.89241 47.6448 8.67233 46.6695 7.79887ZM40.4929 16.5756C40.0264 16.2429 39.7437 15.7022 39.7437 15.1199C39.7437 14.4682 40.0547 13.9275 40.6626 13.4977C41.2846 13.0679 42.0621 12.8461 42.981 12.8461C44.2533 12.8322 45.2429 13.1095 45.9498 13.6641C45.9498 14.6069 45.5681 15.4249 44.8188 16.1181C44.1403 16.7836 43.2213 17.158 42.26 17.158C41.6239 17.1718 41.0018 16.9638 40.4929 16.5756ZM53.0163 23.9972L60.6208 6.87451H58.1472L54.6277 15.4151H54.5853L50.9809 6.87451H48.5073L53.4969 18.0077L50.6699 23.9972H53.0163Z" fill="white"/>
<path d="M20.2808 10.2078C20.2808 9.52845 20.2242 8.84909 20.1112 8.18359H10.5137V12.0241H16.0121C15.7859 13.258 15.0509 14.3672 13.9767 15.0604V17.556H17.2559C19.1783 15.823 20.2808 13.258 20.2808 10.2078Z" fill="#4285F4"/>
<path d="M10.5144 19.9676C13.2566 19.9676 15.5746 19.0803 17.2567 17.5552L13.9774 15.0596C13.0587 15.6696 11.8855 16.0162 10.5144 16.0162C7.85708 16.0162 5.60966 14.2554 4.80398 11.8984H1.42578V14.4772C3.15022 17.8463 6.66977 19.9676 10.5144 19.9676Z" fill="#34A853"/>
<path d="M4.80481 11.8955C4.3807 10.6615 4.3807 9.31665 4.80481 8.06884V5.50391H1.42607C-0.030043 8.31841 -0.030043 11.6459 1.42607 14.4604L4.80481 11.8955Z" fill="#FBBC04"/>
<path d="M10.5144 3.952C11.9703 3.92427 13.3696 4.46498 14.4156 5.44937L17.3274 2.59327C15.4757 0.901798 13.0445 -0.0271257 10.5144 0.000603398C6.66977 0.000603398 3.15022 2.13574 1.42578 5.50482L4.80398 8.08363C5.60966 5.71279 7.85708 3.952 10.5144 3.952Z" fill="#EA4335"/>
</svg>
