<svg width="143" height="38" viewBox="0 0 143 38" fill="none" xmlns="http://www.w3.org/2000/svg">
<g filter="url(#filter0_dd_461_75750)">
<path d="M4 10.5339L17.0339 3L30 10.5339V25.5339L17.0339 33L4 25.5339V10.5339Z" fill="#2365EA" stroke="#2365EA"/>
<path d="M16.9696 7L9 25H11.167L13.2406 20.3512H19.1336L18.285 18.4574H14.0854L17.0015 11.9254L22.8292 24.9985H25L16.9696 7Z" fill="white"/>
</g>
<g clip-path="url(#clip0_461_75750)">
<path d="M116.083 9.15045V9.65877H116.478C116.515 9.66325 116.553 9.65986 116.588 9.64881C116.624 9.63775 116.657 9.61928 116.685 9.59464C116.712 9.56999 116.735 9.53973 116.75 9.50583C116.765 9.47193 116.773 9.43516 116.773 9.39795C116.773 9.22378 116.646 9.14796 116.485 9.14796L116.083 9.15045ZM116.425 9.87212H116.083V10.5688H115.853V8.94962H116.52C116.633 8.94088 116.746 8.97505 116.835 9.04532C116.924 9.11559 116.983 9.21682 117.001 9.32888C117.019 9.44094 116.994 9.55562 116.931 9.6501C116.868 9.74458 116.772 9.81193 116.662 9.83878L117.044 10.5679H116.783L116.425 9.87212ZM116.365 8.55546C116.127 8.54817 115.892 8.61208 115.69 8.73903C115.488 8.86597 115.329 9.05017 115.233 9.2681C115.136 9.48603 115.107 9.72778 115.149 9.96245C115.19 10.1971 115.301 10.414 115.466 10.5855C115.632 10.757 115.845 10.8752 116.078 10.9251C116.311 10.9749 116.553 10.9541 116.775 10.8654C116.996 10.7766 117.186 10.6239 117.32 10.4268C117.454 10.2297 117.526 9.99713 117.527 9.7588C117.533 9.6026 117.508 9.44672 117.452 9.30063C117.396 9.15453 117.312 9.02122 117.203 8.90875C117.095 8.79628 116.964 8.707 116.82 8.64628C116.676 8.58555 116.521 8.55466 116.365 8.55546ZM116.365 11.1504C116.088 11.1518 115.817 11.0708 115.586 10.9178C115.355 10.7648 115.175 10.5466 115.069 10.291C114.962 10.0354 114.934 9.75397 114.987 9.48228C115.041 9.2106 115.174 8.96097 115.37 8.76509C115.566 8.56921 115.815 8.4359 116.087 8.3821C116.359 8.32829 116.64 8.35642 116.896 8.46289C117.151 8.56936 117.37 8.74939 117.523 8.98011C117.676 9.21084 117.757 9.48187 117.756 9.7588C117.759 9.94241 117.726 10.1248 117.657 10.2951C117.588 10.4655 117.486 10.6202 117.356 10.7501C117.226 10.88 117.072 10.9824 116.901 11.0512C116.731 11.12 116.549 11.1537 116.365 11.1504Z" fill="black"/>
<path d="M109.18 8L100.43 27.6825H102.81L109.217 13.3875L112.409 20.5283H107.785L106.854 22.6H113.337L115.611 27.6833H117.992L109.18 8Z" fill="black"/>
<path d="M86.0462 25.6092V19.0984H95.7396V17.0309H86.0462V11.0151H95.9296V8.94922H83.9062V27.6826H95.0996L96.0163 25.6101L86.0462 25.6092Z" fill="black"/>
<path d="M71.3825 16.8322C68.6992 16.0581 67.0684 15.4639 67.0684 13.7489C67.0684 12.0339 68.7558 10.7297 70.9925 10.7297C71.8509 10.6827 72.7082 10.8421 73.4924 11.1944C74.2766 11.5467 74.965 12.0818 75.5 12.7547L75.9292 13.3122L77.5567 11.8214L77.1725 11.3539C76.4176 10.4618 75.4678 9.75495 74.3964 9.28798C73.3251 8.821 72.1608 8.60634 70.9933 8.66056C67.9408 8.66056 64.8517 10.4106 64.8517 13.7439C64.8517 17.2439 67.965 18.1214 70.715 18.8989C73.2825 19.6214 75.5 20.2464 75.5 22.6156C75.5 25.6797 72.1117 25.9181 71.0725 25.9181C70.1255 25.9214 69.1899 25.7114 68.3352 25.3037C67.4804 24.896 66.7284 24.3011 66.135 23.5631L65.7075 23.0472L64.0625 24.4931L64.4425 24.9731C65.2469 25.9458 66.2617 26.723 67.4104 27.2462C68.559 27.7693 69.8116 28.0247 71.0734 27.9931C73.3809 27.9931 75.1417 27.3781 76.3083 26.1664C77.2185 25.2089 77.7221 23.9358 77.7133 22.6147C77.7133 18.6581 74.3575 17.6856 71.3842 16.8239" fill="black"/>
<path d="M51.75 8L43 27.6825H45.3792L47.6558 22.5992H54.1258L53.1942 20.5283H48.5833L51.785 13.3858L58.1833 27.6808H60.5667L51.75 8Z" fill="black"/>
</g>
<defs>
<filter id="filter0_dd_461_75750" x="0.5" y="0.421875" width="33" height="37.1562" filterUnits="userSpaceOnUse" color-interpolation-filters="sRGB">
<feFlood flood-opacity="0" result="BackgroundImageFix"/>
<feColorMatrix in="SourceAlpha" type="matrix" values="0 0 0 0 0 0 0 0 0 0 0 0 0 0 0 0 0 0 127 0" result="hardAlpha"/>
<feOffset dy="1"/>
<feGaussianBlur stdDeviation="1"/>
<feColorMatrix type="matrix" values="0 0 0 0 0.0627451 0 0 0 0 0.0941176 0 0 0 0 0.156863 0 0 0 0.06 0"/>
<feBlend mode="normal" in2="BackgroundImageFix" result="effect1_dropShadow_461_75750"/>
<feColorMatrix in="SourceAlpha" type="matrix" values="0 0 0 0 0 0 0 0 0 0 0 0 0 0 0 0 0 0 127 0" result="hardAlpha"/>
<feOffset dy="1"/>
<feGaussianBlur stdDeviation="1.5"/>
<feColorMatrix type="matrix" values="0 0 0 0 0.0627451 0 0 0 0 0.0941176 0 0 0 0 0.156863 0 0 0 0.1 0"/>
<feBlend mode="normal" in2="effect1_dropShadow_461_75750" result="effect2_dropShadow_461_75750"/>
<feBlend mode="normal" in="SourceGraphic" in2="effect2_dropShadow_461_75750" result="shape"/>
</filter>
<clipPath id="clip0_461_75750">
<rect width="75" height="20" fill="white" transform="translate(43 8)"/>
</clipPath>
</defs>
</svg>
