<svg width="14" height="14" viewBox="0 0 40 40" fill="#9ca3af" xmlns="http://www.w3.org/2000/svg">
<path d="M15.625 9.9998C21.0938 9.9998 26.3281 7.89043 30.2344 3.98418L33.2031 1.01543C34.7656 -0.547073 37.5 0.546677 37.5 2.8123V14.0623C38.9062 14.7654 40 16.6404 40 18.7498C40 20.9373 38.9062 22.8123 37.5 23.5154V34.7654C37.5 37.0311 34.7656 38.1248 33.2031 36.5623L30.2344 33.5936C26.4844 29.8436 21.4844 27.6561 16.25 27.5779V35.6248C16.25 38.0467 14.2188 39.9998 11.875 39.9998H9.375C6.95312 39.9998 5 38.0467 5 35.6248V27.4998C2.1875 27.4998 0 25.3123 0 22.4998V14.9998C0 12.2654 2.1875 9.9998 5 9.9998H15.625ZM33.75 5.78105L32.8906 6.64043C28.4375 11.0936 22.5 13.5936 16.25 13.7498V23.8279C22.5 23.9061 28.4375 26.4842 32.8906 30.9373L33.75 31.7967V5.78105ZM8.75 35.6248C8.75 36.0154 8.98438 36.2498 9.375 36.2498H11.875C12.1875 36.2498 12.5 36.0154 12.5 35.6248V27.4998H8.75V35.6248ZM3.75 14.9998V22.4998C3.75 23.2029 4.29688 23.7498 5 23.7498H12.5V13.7498H5C4.29688 13.7498 3.75 14.3748 3.75 14.9998Z" fill="white"/>
</svg>
