<svg viewBox="0 0 45 40" fill="none" xmlns="http://www.w3.org/2000/svg">
<path d="M7.5 0C8.35938 0 9.14062 0.703125 9.29688 1.5625L9.45312 2.5H42.2656C43.9062 2.5 45.1562 4.14062 44.6875 5.70312L40.4688 20.7031C40.1562 21.7969 39.2188 22.5 38.0469 22.5H13.2812L13.9844 26.25H38.125C39.1406 26.25 40 27.1094 40 28.125C40 29.2188 39.1406 30 38.125 30H12.4219C11.5625 30 10.7812 29.375 10.625 28.5156L5.9375 3.75H1.875C0.78125 3.75 0 2.96875 0 1.875C0 0.859375 0.78125 0 1.875 0H7.5ZM37.1094 18.75L40.625 6.25H10.2344L12.5781 18.75H37.1094ZM10 36.25C10 34.2188 11.6406 32.5 13.75 32.5C15.7812 32.5 17.5 34.2188 17.5 36.25C17.5 38.3594 15.7812 40 13.75 40C11.6406 40 10 38.3594 10 36.25ZM40 36.25C40 38.3594 38.2812 40 36.25 40C34.1406 40 32.5 38.3594 32.5 36.25C32.5 34.2188 34.1406 32.5 36.25 32.5C38.2812 32.5 40 34.2188 40 36.25Z" fill="white"/>
</svg>
