<svg viewBox="0 0 40 40" fill="none" xmlns="http://www.w3.org/2000/svg">
<path d="M12.4995 20C12.4995 15.8594 15.7808 12.5 19.9995 12.5C24.1402 12.5 27.4995 15.8594 27.4995 20C27.4995 24.1406 24.1402 27.5 19.9995 27.5C15.7808 27.5 12.4995 24.1406 12.4995 20ZM19.9995 16.25C17.8902 16.25 16.2495 17.9688 16.2495 20C16.2495 22.1094 17.8902 23.75 19.9995 23.75C22.0308 23.75 23.7495 22.1094 23.7495 20C23.7495 17.9688 22.0308 16.25 19.9995 16.25ZM22.8902 0C24.6089 0 26.0933 1.25 26.4839 2.89062L27.1089 5.46875C27.812 5.78125 28.437 6.17188 28.9839 6.5625L31.562 5.78125C33.2027 5.3125 34.9995 6.01562 35.8589 7.5L38.7495 12.5781C39.6089 14.0625 39.2964 15.9375 38.0464 17.1094L36.1714 18.9062C36.1714 19.2969 36.2495 19.6875 36.2495 20C36.2495 20.3906 36.1714 20.7812 36.1714 21.0938L38.0464 22.9688C39.2964 24.1406 39.6089 26.0156 38.7495 27.5L35.8589 32.5781C34.9995 34.0625 33.2027 34.7656 31.562 34.2969L28.9839 33.5156C28.437 33.9062 27.812 34.2969 27.1089 34.6094L26.4839 37.1875C26.0933 38.8281 24.6089 40 22.8902 40H17.0308C15.312 40 13.8277 38.8281 13.437 37.1875L12.812 34.6094C12.1089 34.2969 11.4839 33.9062 10.937 33.5156L8.35892 34.2969C6.7183 34.7656 4.92142 34.0625 4.06204 32.5781L1.17142 27.5C0.312045 26.0156 0.624545 24.1406 1.87454 22.9688L3.74954 21.0938C3.74954 20.7812 3.74954 20.3906 3.74954 20C3.74954 19.6875 3.74954 19.2969 3.74954 18.9062L1.87454 17.1094C0.624545 15.9375 0.312045 14.0625 1.17142 12.5781L4.06204 7.5C4.92142 6.01562 6.7183 5.3125 8.35892 5.78125L10.937 6.5625C11.4839 6.17188 12.1089 5.78125 12.812 5.46875L13.437 2.89062C13.8277 1.25 15.312 0 17.0308 0H22.8902ZM16.0152 8.125L15.1558 8.51562C14.1402 8.90625 13.2027 9.45312 12.4214 10.0781L11.6402 10.7031L7.3433 9.375L4.45267 14.4531L7.6558 17.5L7.57767 18.4375C7.49955 18.9844 7.49955 19.5312 7.49955 20C7.49955 20.5469 7.49955 21.0938 7.57767 21.6406L7.6558 22.5781L4.45267 25.625L7.3433 30.7031L11.6402 29.375L12.4214 30C13.2027 30.625 14.1402 31.1719 15.1558 31.5625L16.0152 31.9531L17.0308 36.25H22.8902L23.9058 31.9531L24.7652 31.5625C25.7808 31.1719 26.7183 30.625 27.4995 30L28.2808 29.375L32.5777 30.7031L35.4683 25.625L32.2652 22.5781L32.3433 21.6406C32.4214 21.0938 32.4995 20.5469 32.4995 20C32.4995 19.5312 32.4214 18.9844 32.3433 18.4375L32.2652 17.5L35.4683 14.4531L32.5777 9.375L28.2808 10.7031L27.4995 10.0781C26.7183 9.45312 25.7808 8.90625 24.7652 8.51562L23.9058 8.125L22.8902 3.75H17.0308L16.0152 8.125Z" fill="white"/>
</svg>
