<svg viewBox="0 0 46 40" fill="none" xmlns="http://www.w3.org/2000/svg">
<path d="M45.2966 17.9688C46.0778 18.6719 46.1559 19.8438 45.5309 20.625C44.8278 21.4062 43.6559 21.4844 42.8747 20.8594L40.9997 19.2188V33.75C40.9997 37.2656 38.1872 40 34.7497 40H12.2497C8.73405 40 5.99967 37.2656 5.99967 33.75V19.2188L4.04655 20.8594C3.2653 21.4844 2.09342 21.4062 1.3903 20.625C0.765299 19.8438 0.843424 18.6719 1.62467 17.9688L22.2497 0.46875C22.9528 -0.078125 23.9684 -0.078125 24.6715 0.46875L45.2966 17.9688ZM12.2497 36.25H15.9997V24.375C15.9997 22.6562 17.3278 21.25 19.1247 21.25H27.8747C29.5934 21.25 30.9997 22.6562 30.9997 24.375V36.25H34.7497C36.0778 36.25 37.2497 35.1562 37.2497 33.75V16.0156L23.4997 4.375L9.74967 16.0156V33.75C9.74967 35.1562 10.8434 36.25 12.2497 36.25ZM19.7497 36.25H27.2497V25H19.7497V36.25Z" fill="white"/>
</svg>
