<svg width="18" height="18" viewBox="0 0 50 40" fill="none" xmlns="http://www.w3.org/2000/svg">
<path d="M32.5 5V20C32.5 22.8125 30.2344 25 27.5 25H17.5L8.98438 29.8438C8.75 30 8.59375 30 8.4375 30C7.89062 30 7.5 29.6875 7.5 29.0625V25H5C2.1875 25 0 22.8125 0 20V5C0 2.26562 2.1875 0 5 0H27.5C30.2344 0 32.5 2.26562 32.5 5ZM11.25 24.2969L16.4844 21.25H27.5C28.125 21.25 28.75 20.7031 28.75 20V5C28.75 4.375 28.125 3.75 27.5 3.75H5C4.29688 3.75 3.75 4.375 3.75 5V20C3.75 20.7031 4.29688 21.25 5 21.25H11.25V24.2969ZM20 30V27.5H23.75V30C23.75 30.7031 24.2969 31.25 25 31.25H33.4375L38.75 34.2969V31.25H45C45.625 31.25 46.25 30.7031 46.25 30V15C46.25 14.375 45.625 13.75 45 13.75H35V10H45C47.7344 10 50 12.2656 50 15V30C50 32.8125 47.7344 35 45 35H42.5V39.0625C42.5 39.6875 42.0312 40 41.5625 40C41.3281 40 41.1719 40 40.9375 39.8438L32.5 35H25C22.1875 35 20 32.8125 20 30Z" fill="white"/>
</svg>
