<svg width="18" height="18" viewBox="0 0 28 40" fill="none" xmlns="http://www.w3.org/2000/svg">
<path d="M22.75 0C25.4844 0 27.75 2.26562 27.75 5V35C27.75 37.8125 25.4844 40 22.75 40H5.25C2.4375 40 0.25 37.8125 0.25 35V5C0.25 2.26562 2.4375 0 5.25 0H22.75ZM24 35V5C24 4.375 23.375 3.75 22.75 3.75H5.25C4.54688 3.75 4 4.375 4 5V35C4 35.7031 4.54688 36.25 5.25 36.25H22.75C23.375 36.25 24 35.7031 24 35ZM16.5 31.25C17.125 31.25 17.75 31.875 17.75 32.5C17.75 33.2031 17.125 33.75 16.5 33.75H11.5C10.7969 33.75 10.25 33.2031 10.25 32.5C10.25 31.875 10.7969 31.25 11.5 31.25H16.5Z" fill="white"/>
</svg>
