<svg width="18" height="18" viewBox="0 0 50 40" fill="none" xmlns="http://www.w3.org/2000/svg">
<path d="M4.92188 36.25H27.1875C28.125 37.7344 29.375 39.0625 30.7812 40H5C2.1875 40 0 37.8125 0 35V17.5C0 14.7656 2.1875 12.5 5 12.5H35C36.7969 12.5 38.4375 13.5156 39.2969 15.0781C39.1406 15.0781 38.9062 15 38.75 15C36.6406 15 34.6875 15.4688 32.9688 16.25H5C4.29688 16.25 3.75 16.875 3.75 17.5V35C3.75 35.7031 4.29688 36.25 5 36.25H4.92188ZM34.375 6.25C35.3906 6.25 36.25 7.10938 36.25 8.125C36.25 9.21875 35.3906 10 34.375 10H5.54688C4.53125 10 3.67188 9.21875 3.67188 8.125C3.67188 7.10938 4.53125 6.25 5.54688 6.25H34.375ZM30.625 0C31.6406 0 32.5 0.859375 32.5 1.875C32.5 2.96875 31.6406 3.75 30.625 3.75H9.29688C8.28125 3.75 7.42188 2.96875 7.42188 1.875C7.42188 0.859375 8.28125 0 9.29688 0H30.625ZM50 28.75C50 35 44.9219 40 38.75 40C32.5 40 27.5 35 27.5 28.75C27.5 22.5781 32.5 17.5 38.75 17.5C44.9219 17.5 50 22.5781 50 28.75ZM41.25 32.5H36.1719C34.5312 32.5 33.125 33.5938 32.6562 35.0781C34.2188 36.6406 36.3281 37.5 38.75 37.5C41.0938 37.5 43.2031 36.6406 44.7656 35.0781C44.2969 33.5938 42.8906 32.5 41.25 32.5ZM38.75 22.5C36.6406 22.5 35 24.2188 35 26.25C35 28.3594 36.6406 30 38.75 30C40.7812 30 42.5 28.3594 42.5 26.25C42.5 24.2188 40.7812 22.5 38.75 22.5Z" fill="white"/>
</svg>
