<svg viewBox="0 0 50 40" fill="none" xmlns="http://www.w3.org/2000/svg">
<path d="M24.9219 25C20.4688 25 16.7969 21.4062 16.875 16.875C16.875 12.4219 20.4688 8.75 24.9219 8.75C29.375 8.75 33.0469 12.4219 33.0469 16.875C33.0469 21.4062 29.4531 25 24.9219 25ZM24.9219 12.5C22.5781 12.5 20.5469 14.5312 20.5469 16.875C20.5469 19.2969 22.5781 21.25 24.9219 21.25C27.3438 21.25 29.2969 19.2969 29.2969 16.875C29.2969 14.5312 27.3438 12.5 24.9219 12.5ZM40 12.5C36.4844 12.5 33.75 9.76562 33.75 6.25C33.75 2.8125 36.4844 0 40 0C43.4375 0 46.25 2.8125 46.25 6.25C46.25 9.76562 43.4375 12.5 40 12.5ZM28.8281 27.5C35 27.5 40 32.1875 40 37.9688C40 39.1406 38.9844 40 37.7344 40H12.1875C10.9375 40 10 39.1406 10 37.9688C10 32.1875 14.9219 27.5 21.0938 27.5H28.8281ZM13.9062 36.25H36.0156C35.1562 33.4375 32.2656 31.25 28.8281 31.25H21.0156C17.5781 31.25 14.6875 33.4375 13.9062 36.25ZM43.0469 15C46.875 15 50 18.2812 50 22.3438C50 23.125 49.375 23.75 48.5938 23.75H32.9688C34.6094 21.9531 35.5469 19.5312 35.5469 16.875C35.5469 16.4844 35.4688 16.0938 35.4688 15.7031C36.3281 15.3125 37.2656 15 38.2812 15H43.0469ZM14.2969 16.875C14.2969 19.5312 15.3125 21.9531 16.9531 23.75H1.32812C0.546875 23.75 0 23.125 0 22.3438C0 18.2812 3.04688 15 6.875 15H11.6406C12.6562 15 13.5938 15.2344 14.4531 15.7031C14.375 16.0938 14.2969 16.4844 14.2969 16.875ZM10 12.5C6.48438 12.5 3.75 9.76562 3.75 6.25C3.75 2.8125 6.48438 0 10 0C13.4375 0 16.25 2.8125 16.25 6.25C16.25 9.76562 13.4375 12.5 10 12.5Z" fill="white"/>
</svg>
