<svg width="61" height="21" viewBox="0 0 61 21" fill="none" xmlns="http://www.w3.org/2000/svg">
<path fill-rule="evenodd" clip-rule="evenodd" d="M46.4533 3.19531H48.4653V5.55499H46.4533V3.19531ZM27.9766 17.5325V6.32893C27.9766 4.50942 29.2144 3.21258 31.4013 3.21258H31.8649V5.05177C30.6665 5.05177 29.9885 5.41917 29.9885 6.32893V6.81224H31.8649V8.65143H29.9885V17.5325H27.9766ZM34.7113 3.21258H32.6994V17.5303H34.7113V3.21258ZM43.3215 12.5973C43.3215 14.6683 42.3724 15.9652 40.5157 15.9652C38.659 15.9652 37.8454 14.8739 37.8454 12.6367V6.81295H35.8335V12.792C35.8335 16.5644 38.0007 17.8044 40.3014 17.8044C41.7141 17.8044 42.9256 17.2817 43.4571 16.3719H43.4942V17.5332H45.3334V6.81733H43.3215V12.5973ZM48.4653 6.79568H46.4533V17.5159H48.4653V6.79568ZM58.7774 3.21349V8.12966H58.738C57.8633 7.03621 56.4943 6.52228 55.0444 6.52228C51.8515 6.52228 49.529 9.01974 49.529 12.2892C49.529 15.4427 51.9871 17.8046 55.1012 17.8046C56.6692 17.8046 58.0623 17.166 58.8933 16.0047H58.9349V17.5356H60.7916V3.21349H58.7774ZM55.1972 15.9632C53.1852 15.9632 51.5407 14.2137 51.5407 12.1908C51.5407 10.0804 53.1459 8.35934 55.1972 8.35934C57.4606 8.35934 58.9324 10.0804 58.9324 12.2674C58.9073 14.3134 57.2434 15.9598 55.1972 15.9632Z" fill="#999fb5"/>
<path fill-rule="evenodd" clip-rule="evenodd" d="M0.423921 4.83636C0.423921 2.20479 2.52755 0.0559497 5.15852 0C7.82633 0.00720356 9.98756 2.16746 9.99597 4.83526V9.67271H5.15852C2.52755 9.61676 0.423921 7.46793 0.423921 4.83636ZM0.320313 11.3278H5.15558C7.11254 11.3269 8.87726 12.5052 9.62656 14.313C10.3759 16.1208 9.96214 18.2021 8.57836 19.5858C7.19457 20.9696 5.11337 21.3833 3.30554 20.634C1.49771 19.8847 0.319429 18.12 0.320313 16.1631V11.3278ZM15.8042 0C13.1733 0.0559497 11.0696 2.20479 11.0696 4.83636C11.0696 7.46793 13.1733 9.61676 15.8042 9.67271H20.6395V4.83526C20.6311 2.16831 18.4712 0.0084037 15.8042 0ZM10.9747 11.3278H15.8099C18.4804 11.3278 20.6452 13.4926 20.6452 16.1631C20.6452 18.8335 18.4804 20.9983 15.8099 20.9983C13.1395 20.9983 10.9747 18.8335 10.9747 16.1631V11.3278Z" fill="#999fb5"/>
</svg>
