<svg width="21" height="21" viewBox="0 0 21 21" fill="none" xmlns="http://www.w3.org/2000/svg">
<path fill-rule="evenodd" clip-rule="evenodd" d="M0.423921 4.83636C0.423921 2.20479 2.52755 0.0559497 5.15852 0C7.82633 0.00720356 9.98756 2.16746 9.99597 4.83526V9.67271H5.15852C2.52755 9.61676 0.423921 7.46793 0.423921 4.83636ZM0.320313 11.3278H5.15558C7.11254 11.3269 8.87726 12.5052 9.62656 14.313C10.3759 16.1208 9.96214 18.2021 8.57836 19.5858C7.19457 20.9696 5.11337 21.3833 3.30554 20.634C1.49771 19.8847 0.319429 18.12 0.320313 16.1631V11.3278ZM15.8042 0C13.1733 0.0559497 11.0696 2.20479 11.0696 4.83636C11.0696 7.46793 13.1733 9.61676 15.8042 9.67271H20.6395V4.83526C20.6311 2.16831 18.4712 0.0084037 15.8042 0ZM10.9747 11.3278H15.8099C18.4804 11.3278 20.6452 13.4926 20.6452 16.1631C20.6452 18.8335 18.4804 20.9983 15.8099 20.9983C13.1395 20.9983 10.9747 18.8335 10.9747 16.1631V11.3278Z" fill="black"/>
</svg>
