<svg width="32" height="32" viewBox="0 0 32 32" fill="none" xmlns="http://www.w3.org/2000/svg">
<path d="M32 16C32 24.875 24.8125 32 16 32C7.125 32 0 24.875 0 16C0 7.1875 7.125 0 16 0C24.8125 0 32 7.1875 32 16ZM18 6C18 4.9375 17.0625 4 16 4C14.875 4 14 4.9375 14 6C14 7.125 14.875 8 16 8C17.0625 8 18 7.125 18 6ZM16 26C18.1875 26 20 24.25 20 22C20 21.8125 19.9375 21.5625 19.9375 21.375L27.25 16.8125C27.9375 16.375 28.1875 15.4375 27.75 14.75C27.3125 14.0625 26.375 13.8125 25.6875 14.25L18.3125 18.8125C17.6875 18.3125 16.875 18 16 18C13.75 18 12 19.8125 12 22C12 24.25 13.75 26 16 26ZM11 9C11 7.9375 10.0625 7 9 7C7.875 7 7 7.9375 7 9C7 10.125 7.875 11 9 11C10.0625 11 11 10.125 11 9ZM6 18C7.0625 18 8 17.125 8 16C8 14.9375 7.0625 14 6 14C4.875 14 4 14.9375 4 16C4 17.125 4.875 18 6 18ZM25 9C25 7.9375 24.0625 7 23 7C21.875 7 21 7.9375 21 9C21 10.125 21.875 11 23 11C24.0625 11 25 10.125 25 9Z" fill="#E9EBF1"/>
<path d="M16 4.5C16.8125 4.5 17.5 5.1875 17.5 6C17.5 6.875 16.8125 7.5 16 7.5C15.125 7.5 14.5 6.875 14.5 6C14.5 5.1875 15.125 4.5 16 4.5ZM16 18C17.0625 18 18.0625 18.4375 18.75 19.1875L25.4375 15.1875C25.9375 14.875 26.5625 15.0625 26.8125 15.5C27.125 16 26.9375 16.625 26.5 16.875L19.8125 20.875C19.9375 21.25 20 21.625 20 22C20 24.25 18.1875 26 15.9375 26C13.75 26 11.9375 24.25 11.9375 22C11.9375 19.8125 13.75 18 15.9375 18H16ZM14 22C14 23.125 14.875 24 16 24C17.0625 24 18 23.125 18 22C18 20.9375 17.0625 20 16 20C14.875 20 14 20.9375 14 22ZM23 7.5C23.8125 7.5 24.5 8.1875 24.5 9C24.5 9.875 23.8125 10.5 23 10.5C22.125 10.5 21.5 9.875 21.5 9C21.5 8.1875 22.125 7.5 23 7.5ZM6 17.5C5.125 17.5 4.5 16.875 4.5 16C4.5 15.1875 5.125 14.5 6 14.5C6.8125 14.5 7.5 15.1875 7.5 16C7.5 16.875 6.8125 17.5 6 17.5ZM9 7.5C9.8125 7.5 10.5 8.1875 10.5 9C10.5 9.875 9.8125 10.5 9 10.5C8.125 10.5 7.5 9.875 7.5 9C7.5 8.1875 8.125 7.5 9 7.5ZM16 32C7.125 32 0 24.875 0 16C0 7.1875 7.125 0 16 0C24.8125 0 32 7.1875 32 16C32 24.875 24.8125 32 16 32ZM30 16C30 8.3125 23.6875 2 16 2C8.25 2 2 8.3125 2 16C2 23.75 8.25 30 16 30C23.6875 30 30 23.75 30 16Z" fill="#999FB5"/>
</svg>
