<svg width="41" height="32" viewBox="0 0 41 32" fill="none" xmlns="http://www.w3.org/2000/svg">
<path d="M21 2C21.5 2 22 2.125 22.4375 2.3125L40 8.625C40.5625 8.8125 41 9.375 41 10C41 10.6875 40.5625 11.25 40 11.4375L22.4375 17.75C22 17.9375 21.5 18 20.9375 18C20.4375 18 19.9375 17.9375 19.5 17.75L9.5 14.125C10.0625 13.5625 10.75 13.125 11.5 12.8125L21.3125 8.9375C21.875 8.75 22.125 8.1875 21.875 7.625C21.6875 7.125 21.125 6.875 20.625 7.0625L10.8125 10.9375C9.5625 11.4375 8.5 12.1875 7.6875 13.1875C6.625 14.625 6 16.375 6 18.25V19.8125C6.375 20.625 6.625 21.5625 6.8125 22.4375C7.1875 24.125 7.5 26.5625 6.9375 29.25C6.875 29.5 6.75 29.75 6.5 29.875C6.25 30 6 30.0625 5.75 30L1.75 29C1.375 28.9375 1.125 28.6875 1 28.375C0.9375 28.0625 1 27.6875 1.1875 27.4375C1.6875 26.6875 2.1875 25.875 2.5625 25.0625C3.3125 23.625 4 21.8125 4 20V18.25C4 16.25 4.5625 14.375 5.5625 12.75L1.9375 11.4375C1.375 11.25 1 10.6875 1 10C1 9.375 1.375 8.8125 1.9375 8.625L19.5 2.3125C19.9375 2.125 20.4375 2 21 2ZM9 25.5L9.9375 16.4375L18.8125 19.625C19.5 19.875 20.25 20 21 20C21.6875 20 22.4375 19.875 23.125 19.625L32 16.4375L33 25.5C33 27.75 27.625 30 21 30C14.375 30 9 27.75 9 25.5Z" fill="#E9EBF1"/>
<path d="M39.5625 8.5625C40.4375 8.875 41 9.5 41 10.5C41 11.4375 40.4375 12.1875 39.5625 12.5L21.6875 18.875C21.4375 19 21.1875 19 20.9375 19C20.75 19 20.5 19 20.25 18.875L6 13.75V20L7.9375 28.8125C8 29.125 7.9375 29.4375 7.75 29.625C7.5625 29.875 7.25 30 6.9375 30H3C2.6875 30 2.375 29.875 2.1875 29.6875C2 29.4375 1.9375 29.125 2 28.8125L4 20.125V13.0625L2.375 12.4375C1.5 12.125 1 11.3125 1 10.5C1 9.625 1.5 8.875 2.375 8.5625L20.25 2.125C20.6875 2 21.25 2 21.6875 2.125L39.5625 8.5625ZM4.25 28H5.75L5 24.6875L4.25 28ZM20.9375 17L39 10.5L21 4.0625L3 10.5L5.9375 11.625L20.6875 7.0625C21.1875 6.9375 21.75 7.1875 21.9375 7.75C22.0625 8.25 21.8125 8.8125 21.25 9L9.0625 12.75L20.9375 17ZM31.125 18.0625C31.6875 17.9375 32.1875 18.375 32.25 18.875L32.9375 24.3125C33.125 25.75 32.3125 27.125 30.875 27.8125C27.875 29.1875 24.5 29.9375 21.125 30H20.875C17.4375 29.9375 14.0625 29.1875 11.0625 27.8125C9.625 27.125 8.8125 25.75 9 24.3125L9.6875 18.875C9.75 18.375 10.25 17.9375 10.8125 18.0625C11.375 18.125 11.75 18.625 11.6875 19.1875L11 24.5625C10.875 25.125 11.25 25.6875 11.875 26C14.625 27.25 17.75 27.9375 20.875 28H21.0625C24.1875 27.9375 27.3125 27.25 30.0625 26C30.6875 25.6875 31.0625 25.125 30.9375 24.5625L30.25 19.1875C30.1875 18.625 30.5625 18.125 31.125 18.0625Z" fill="#999FB5"/>
</svg>
