<svg width="32" height="32" viewBox="0 0 32 32" fill="none" xmlns="http://www.w3.org/2000/svg">
<path d="M3 4H29C30.625 4 32 5.375 32 7C32 8 31.5 8.875 30.75 9.4375L17.1875 19.625C16.4375 20.1875 15.5 20.1875 14.75 19.625L1.1875 9.4375C0.4375 8.875 0 8 0 7C0 5.375 1.3125 4 3 4ZM0 11L13.5625 21.25C15 22.3125 16.9375 22.3125 18.375 21.25L32 11V24C32 26.25 30.1875 28 28 28H4C1.75 28 0 26.25 0 24V11Z" fill="#E9EBF1"/>
<path d="M4 6C2.875 6 2 6.9375 2 8V10.5L14.1875 19.5C15.25 20.25 16.6875 20.25 17.75 19.5L30 10.5V8C30 6.9375 29.0625 6 28 6H4ZM2 13V24C2 25.125 2.875 26 4 26H28C29.0625 26 30 25.125 30 24V13L18.9375 21.125C17.1875 22.375 14.75 22.375 13 21.125L2 13ZM0 8C0 5.8125 1.75 4 4 4H28C30.1875 4 32 5.8125 32 8V24C32 26.25 30.1875 28 28 28H4C1.75 28 0 26.25 0 24V8Z" fill="#999FB5"/>
</svg>
