<svg width="22" viewBox="0 0 40 32" fill="none" xmlns="http://www.w3.org/2000/svg">
<path d="M20 23C20 26.75 21.8125 30.0625 24.625 32H4C1.75 32 0 30.25 0 28V14C0 11.8125 1.75 10 4 10H28C29.4375 10 30.75 10.8125 31.4375 12.0625C31.3125 12.0625 31.125 12 31 12C24.875 12 20 16.9375 20 23ZM27.5 5C28.3125 5 29 5.6875 29 6.5C29 7.375 28.3125 8 27.5 8H4.5C3.625 8 3 7.375 3 6.5C3 5.6875 3.625 5 4.5 5H27.5ZM24.5 0C25.3125 0 26 0.6875 26 1.5C26 2.375 25.3125 3 24.5 3H7.5C6.625 3 6 2.375 6 1.5C6 0.6875 6.625 0 7.5 0H24.5ZM31 32C26 32 22 28 22 23C22 18.0625 26 14 31 14C35.9375 14 40 18.0625 40 23C40 28 35.9375 32 31 32ZM32 19C32 18.5 31.5 18 31 18C30.4375 18 30 18.5 30 19V22H27C26.4375 22 26 22.5 26 23C26 23.5625 26.4375 24 27 24H30V27C30 27.5625 30.4375 28 31 28C31.5 28 32 27.5625 32 27V24H35C35.5 24 36 23.5625 36 23C36 22.5 35.5 22 35 22H32V19Z" fill="#EFF4FF"/>
<path d="M28 10H4C2.875 10 2 10.9375 2 12V28C2 29.125 2.875 30 4 30H22.5C23.125 30.8125 23.8125 31.4375 24.625 32H4C1.75 32 0 30.25 0 28V12C0 9.8125 1.75 8 4 8H28C30.1875 8 32 9.8125 32 12V12.0625C31.625 12.0625 31.3125 12 31 12C30.625 12 30.3125 12.0625 30 12.0625V12C30 10.9375 29.0625 10 28 10ZM28 4C28.5 4 29 4.5 29 5C29 5.5625 28.5 6 28 6H4C3.4375 6 3 5.5625 3 5C3 4.5 3.4375 4 4 4H28ZM25 0C25.5 0 26 0.5 26 1C26 1.5625 25.5 2 25 2H7C6.4375 2 6 1.5625 6 1C6 0.5 6.4375 0 7 0H25ZM32 22H35C35.5 22 36 22.5 36 23C36 23.5625 35.5 24 35 24H32V27C32 27.5625 31.5 28 31 28C30.4375 28 30 27.5625 30 27V24H27C26.4375 24 26 23.5625 26 23C26 22.5 26.4375 22 27 22H30V19C30 18.5 30.4375 18 31 18C31.5 18 32 18.5 32 19V22ZM40 23C40 28 35.9375 32 31 32C26 32 22 28 22 23C22 18.0625 26 14 31 14C35.9375 14 40 18.0625 40 23ZM31 16C27.125 16 24 19.1875 24 23C24 26.875 27.125 30 31 30C34.8125 30 38 26.875 38 23C38 19.1875 34.8125 16 31 16Z" fill="#2365EA"/>
</svg>
