<svg width="40" height="32" viewBox="0 0 40 32" fill="none" xmlns="http://www.w3.org/2000/svg">
<path d="M9 10C6.1875 10 4 7.8125 4 5C4 2.25 6.1875 0 9 0C11.75 0 14 2.25 14 5C14 7.8125 11.75 10 9 10ZM32 10C29.1875 10 27 7.8125 27 5C27 2.25 29.1875 0 32 0C34.75 0 37 2.25 37 5C37 7.8125 34.75 10 32 10ZM0 18.6875C0 15 2.9375 12 6.625 12H9.3125C10.3125 12 11.25 12.25 12.125 12.625C12 13.0625 12 13.5625 12 14C12 16.4375 13 18.5625 14.6875 20C14.6875 20 14.6875 20 14.625 20H1.3125C0.5625 20 0 19.4375 0 18.6875ZM25.3125 20H25.25C26.9375 18.5625 27.9375 16.4375 27.9375 14C27.9375 13.5625 27.9375 13.0625 27.875 12.625C28.6875 12.25 29.625 12 30.625 12H33.3125C37 12 40 15 40 18.6875C40 19.4375 39.375 20 38.625 20H25.3125ZM26 14C26 17.3125 23.3125 20 20 20C16.6875 20 14 17.3125 14 14C14 10.6875 16.6875 8 20 8C23.3125 8 26 10.6875 26 14ZM8 30.375C8 25.75 11.6875 22 16.3125 22H23.625C28.25 22 32 25.75 32 30.375C32 31.25 31.25 32 30.3125 32H9.625C8.75 32 8 31.3125 8 30.375Z" fill="#EFF4FF"/>
<path d="M19.9375 20C16.375 20 13.4375 17.125 13.5 13.5C13.5 9.9375 16.375 7 19.9375 7C23.5 7 26.4375 9.9375 26.4375 13.5C26.4375 17.125 23.5625 20 19.9375 20ZM19.9375 9C17.5 9 15.4375 11.0625 15.4375 13.5C15.4375 16 17.5 18 19.9375 18C22.4375 18 24.4375 16 24.4375 13.5C24.4375 11.0625 22.4375 9 19.9375 9ZM23.0625 22C28 22 32 25.75 32 30.375C32 31.3125 31.1875 32 30.1875 32H9.75C8.75 32 8 31.3125 8 30.375C8 25.75 11.9375 22 16.875 22H23.0625ZM10 30H29.9375C29.75 26.6875 26.75 24 23.0625 24H16.8125C13.1875 24 10.1875 26.6875 10 30ZM32 10C29.1875 10 27 7.8125 27 5C27 2.25 29.1875 0 32 0C34.75 0 37 2.25 37 5C37 7.8125 34.75 10 32 10ZM32 2C30.3125 2 29 3.375 29 5C29 6.6875 30.3125 8 32 8C33.625 8 35 6.6875 35 5C35 3.375 33.625 2 32 2ZM8 10C5.1875 10 3 7.8125 3 5C3 2.25 5.1875 0 8 0C10.75 0 13 2.25 13 5C13 7.8125 10.75 10 8 10ZM8 2C6.3125 2 5 3.375 5 5C5 6.6875 6.3125 8 8 8C9.625 8 11 6.6875 11 5C11 3.375 9.625 2 8 2ZM35.0625 12C37.75 12 40 14.375 40 17.1875V18C40 18.5625 39.5 19 39 19C38.4375 19 38 18.5625 38 18V17.1875C38 15.4375 36.625 14 35.0625 14H31C30.5625 14 30.1875 14.125 29.8125 14.3125C29.3125 14.5625 28.6875 14.3125 28.4375 13.8125C28.25 13.3125 28.4375 12.75 28.9375 12.5C29.5625 12.1875 30.25 12 31 12H35.0625ZM10.125 14.3125C9.75 14.125 9.375 14 9 14H4.875C3.3125 14 2 15.4375 2 17.1875V18C2 18.5625 1.5 19 1 19C0.4375 19 0 18.5625 0 18V17.1875C0 14.375 2.1875 12 4.875 12H9C9.6875 12 10.375 12.1875 11 12.5C11.5 12.75 11.6875 13.3125 11.5 13.8125C11.25 14.3125 10.625 14.5625 10.125 14.3125Z" fill="#2365EA"/>
</svg>
