<svg width="32" height="32" viewBox="0 0 32 32" fill="none" xmlns="http://www.w3.org/2000/svg">
<path d="M10 0C11.0625 0 12 0.9375 12 2V4H20V2C20 0.9375 20.875 0 22 0C23.0625 0 24 0.9375 24 2V4H27C28.625 4 30 5.375 30 7V10H2V7C2 5.375 3.3125 4 5 4H8V2C8 0.9375 8.875 0 10 0ZM2 12H30V29C30 30.6875 28.625 32 27 32H5C3.3125 32 2 30.6875 2 29V12ZM6 17V19C6 19.5625 6.4375 20 7 20H9C9.5 20 10 19.5625 10 19V17C10 16.5 9.5 16 9 16H7C6.4375 16 6 16.5 6 17ZM14 17V19C14 19.5625 14.4375 20 15 20H17C17.5 20 18 19.5625 18 19V17C18 16.5 17.5 16 17 16H15C14.4375 16 14 16.5 14 17ZM23 16C22.4375 16 22 16.5 22 17V19C22 19.5625 22.4375 20 23 20H25C25.5 20 26 19.5625 26 19V17C26 16.5 25.5 16 25 16H23ZM6 25V27C6 27.5625 6.4375 28 7 28H9C9.5 28 10 27.5625 10 27V25C10 24.5 9.5 24 9 24H7C6.4375 24 6 24.5 6 25ZM15 24C14.4375 24 14 24.5 14 25V27C14 27.5625 14.4375 28 15 28H17C17.5 28 18 27.5625 18 27V25C18 24.5 17.5 24 17 24H15ZM22 25V27C22 27.5625 22.4375 28 23 28H25C25.5 28 26 27.5625 26 27V25C26 24.5 25.5 24 25 24H23C22.4375 24 22 24.5 22 25Z" fill="#E9EBF1"/>
<path d="M9 0C9.5 0 10 0.5 10 1V4H22V1C22 0.5 22.4375 0 23 0C23.5 0 24 0.5 24 1V4H26C28.1875 4 30 5.8125 30 8V28C30 30.25 28.1875 32 26 32H6C3.75 32 2 30.25 2 28V8C2 5.8125 3.75 4 6 4H8V1C8 0.5 8.4375 0 9 0ZM28 12H21.5V16.5H28V12ZM28 18.5H21.5V23.5H28V18.5ZM28 25.5H21.5V30H26C27.0625 30 28 29.125 28 28V25.5ZM19.5 23.5V18.5H12.5V23.5H19.5ZM12.5 30H19.5V25.5H12.5V30ZM10.5 23.5V18.5H4V23.5H10.5ZM4 25.5V28C4 29.125 4.875 30 6 30H10.5V25.5H4ZM4 16.5H10.5V12H4V16.5ZM12.5 16.5H19.5V12H12.5V16.5ZM26 6H6C4.875 6 4 6.9375 4 8V10H28V8C28 6.9375 27.0625 6 26 6Z" fill="#999FB5"/>
</svg>
