<svg width="22" viewBox="0 0 36 32" fill="none" xmlns="http://www.w3.org/2000/svg">
<path d="M34 2C35.0625 2 36 2.9375 36 4V28C36 29.125 35.0625 30 34 30C32.875 30 32 29.125 32 28V4C32 2.9375 32.875 2 34 2ZM4 11.9375L30 4V28L21.75 25.5625C21.125 28.125 18.75 30 16 30C12.6875 30 10 27.3125 10 24C10 23.3125 10.0625 22.6875 10.3125 22.0625L4 20.125C3.9375 21.1875 3.0625 22 2 22C0.875 22 0 21.125 0 20V12C0 10.9375 0.875 10 2 10C3.0625 10 3.9375 10.875 4 11.9375ZM18.9375 24.6875L13.1875 22.9375C13.0625 23.25 13 23.625 13 24C13 25.6875 14.3125 27 16 27C17.4375 27 18.625 26 18.9375 24.6875Z" fill="#EFF4FF"/>
<path d="M36 3V29C36 29.5625 35.5 30 35 30C34.4375 30 34 29.5625 34 29V28.3125L21.8125 25.25C21.25 28 18.875 30 16 30C12.625 30 10 27.3125 10 24C10 23.4375 10.0625 22.875 10.1875 22.375L2 20.3125V21C2 21.5625 1.5 22 1 22C0.4375 22 0 21.5625 0 21V11C0 10.5 0.4375 10 1 10C1.5 10 2 10.5 2 11V11.75L34 3.75V3C34 2.5 34.4375 2 35 2C35.5 2 36 2.5 36 3ZM34 26.25V5.8125L2 13.8125V18.25L34 26.25ZM16 28C17.9375 28 19.5625 26.625 19.875 24.8125L12.125 22.875C12 23.25 12 23.625 12 24C12 26.25 13.75 28 16 28Z" fill="#2365EA"/>
</svg>
