<svg width="34" height="34" viewBox="0 0 34 34" fill="none" xmlns="http://www.w3.org/2000/svg">
<path d="M5.875 1.3125L12.375 6.3125C12.75 6.625 13 7.0625 13 7.5V10.875L19.8125 17.6875C21.625 16.8125 23.875 17.125 25.375 18.625L32.375 25.625C33.1875 26.375 33.1875 27.6875 32.375 28.4375L28.375 32.4375C27.625 33.25 26.3125 33.25 25.5625 32.4375L18.5625 25.4375C17.0625 23.9375 16.75 21.625 17.6875 19.8125L10.875 13H7.4375C7 13 6.5625 12.8125 6.25 12.4375L1.25 5.9375C0.8125 5.3125 0.875 4.5 1.4375 3.9375L3.9375 1.4375C4.4375 0.9375 5.3125 0.875 5.875 1.3125ZM2.1875 25.8125L11.5 16.5L15.375 20.375C15 21.6875 15.0625 23.125 15.5625 24.4375L8.1875 31.8125C7.4375 32.5625 6.3125 33 5.1875 33C2.875 33 1 31.125 1 28.8125C1 27.6875 1.4375 26.5625 2.1875 25.8125ZM33 10C33 13.625 30.875 16.75 27.8125 18.1875L26.8125 17.1875C25.0625 15.4375 22.5625 14.8125 20.3125 15.4375L15 10.0625V10C15 5.0625 19 1 24 1C24.625 1 25.25 1.125 25.875 1.25C26.5625 1.375 26.75 2.25 26.25 2.75L22.25 6.75C22.0625 6.9375 22 7.1875 22 7.4375V11.0625C22 11.5625 22.4375 12.0625 23 12.0625H26.5625C26.8125 12.0625 27.0625 11.9375 27.25 11.75L31.25 7.75C31.75 7.25 32.625 7.4375 32.75 8.125C32.875 8.75 33 9.375 33 10ZM7.5 28C7.5 27.1875 6.8125 26.5 6 26.5C5.125 26.5 4.5 27.1875 4.5 28C4.5 28.875 5.125 29.5 6 29.5C6.8125 29.5 7.5 28.875 7.5 28Z" fill="#E9EBF1"/>
<path d="M15.0625 24.6875C15.0625 24.6875 15.0625 24.6875 15 24.6875C15.1875 25.0625 15.125 25.5 14.8125 25.8125L9.125 31.5C8.375 32.25 7.375 32.8125 6.3125 33C4.8125 33.1875 3.375 32.6875 2.3125 31.625C0.4375 29.75 0.4375 26.75 2.3125 24.9375L10.75 16.5C11.1875 16.125 11.8125 16.125 12.1875 16.5C12.5625 16.875 12.5625 17.5 12.1875 17.875L3.75 26.3125C2.5625 27.5 2.75 29.5625 4.1875 30.5625C5.3125 31.3125 6.8125 31.0625 7.75 30.125L13.4375 24.4375C13.9375 23.9375 14.6875 24.0625 15.0625 24.6875ZM17.1875 6.5625C16.875 7.125 16.125 7.1875 15.6875 6.75C15.375 6.4375 15.3125 5.875 15.5625 5.5C15.875 4.875 16.3125 4.3125 16.875 3.8125C19.25 1.4375 22.5625 0.5 25.8125 1.3125C26.375 1.4375 26.875 1.9375 27 2.5C27.1875 3.125 27 3.75 26.5625 4.1875L22.625 8.1875L23.0625 10.9375L25.8125 11.375L29.8125 7.375C30.25 6.9375 30.875 6.8125 31.5 6.9375C32.0625 7.125 32.5625 7.625 32.6875 8.1875C33.5 11.4375 32.5625 14.75 30.1875 17.125C29.875 17.5 29.5 17.8125 29.125 18.0625C28.75 18.375 28.1875 18.3125 27.8125 17.9375C27.375 17.5625 27.4375 16.8125 27.875 16.5C28.1875 16.25 28.5 16 28.8125 15.75C30.5 14 31.25 11.5625 30.875 9.1875L26.5 13.5L21.3125 12.6875L20.5 7.5L24.8125 3.125C24.375 3.0625 23.9375 3 23.5 3C21.5625 3 19.6875 3.8125 18.25 5.1875C17.875 5.625 17.5 6.0625 17.1875 6.5625ZM4.9375 28C4.9375 27.5 5.4375 27.0625 5.9375 27.0625C6.375 27.0625 6.875 27.5625 6.875 28C6.875 28.5 6.4375 28.9375 5.9375 28.9375C5.375 28.9375 4.9375 28.5625 4.9375 28ZM32.375 25.375C33.1875 26.125 33.1875 27.4375 32.3125 28.1875L28.125 32.4375C27.75 32.8125 27.25 33 26.75 33C26.1875 33 25.6875 32.8125 25.3125 32.3125L17.5625 24.5625C15.8125 22.8125 15.625 20.1875 16.875 18.25L11.5625 12.9375H7L1 5L5 1L12.9375 7V11.625L18.3125 16.9375C19.125 16.375 20.125 16.125 21.0625 16.125C22.375 16.125 23.625 16.625 24.625 17.5625L32.375 25.375ZM10.9375 11H10.875V8L5.125 3.6875L3.625 5.1875L8 11H10.9375ZM26.75 31L30.9375 26.75L23.1875 19C22.625 18.4375 21.875 18.125 21.0625 18.125C20.25 18.125 19.5 18.4375 18.9375 19C18.375 19.5625 18.0625 20.3125 18.0625 21.125C18.0625 21.9375 18.375 22.6875 18.9375 23.25L26.75 31Z" fill="#999FB5"/>
</svg>
