<svg width="40" height="33" viewBox="0 0 40 33" fill="none" xmlns="http://www.w3.org/2000/svg">
<path d="M4 0H22C24.1875 0 26 1.8125 26 4V16C26 18.25 24.1875 20 22 20H12.625L7.5625 23.8125C7.25 24.0625 6.875 24.0625 6.5 23.9375C6.1875 23.75 6 23.4375 6 23V20H4C1.75 20 0 18.25 0 16V4C0 1.8125 1.75 0 4 0ZM22 22C25.3125 22 28 19.3125 28 16V8H36C38.1875 8 40 9.8125 40 12V24C40 26.25 38.1875 28 36 28H34V31C34 31.4375 33.75 31.75 33.4375 31.9375C33.0625 32.0625 32.6875 32.0625 32.375 31.8125L27.3125 28H20C17.75 28 16 26.25 16 24V22H22Z" fill="#EFF4FF"/>
<path d="M36 8C38.1875 8 40 9.8125 40 12V24.0625C40 26.25 38.1875 28 36 28H34V31.25C34 31.75 33.625 32 33.25 32C33.0625 32 32.9375 32 32.75 31.875L26 28H19.9375C17.75 28 16 26.25 16 24V22H18V24C18 25.125 18.875 26 20 26H26.5L32 29.125V26H36C37.0625 26 38 25.125 38 24V12C38 10.9375 37.0625 10 36 10H28V8H36ZM26 16C26 18.25 24.1875 20 22 20H14L7.1875 23.875C7 24 6.875 24 6.75 24C6.3125 24 6 23.75 6 23.25V20.0625L4 20C1.75 20 0 18.25 0 16V4C0 1.8125 1.75 0 4 0H22C24.1875 0 26 1.8125 26 4V16ZM13.4375 18H22C23.0625 18 24 17.125 24 16V4C24 2.9375 23.0625 2 22 2H4C2.875 2 2 2.9375 2 4V16C2 17.125 2.875 18 4 18H8V21.125L13.4375 18Z" fill="#2365EA"/>
</svg>
