<svg width="40" height="33" viewBox="0 0 40 33" fill="none" xmlns="http://www.w3.org/2000/svg">
<path d="M0.0625 29.6875C0.4375 26.875 1.875 24.375 4 22.625C5.9375 21 8.4375 20 11.125 20H14H16.8125C19.5625 20 22 21 23.9375 22.625C26.0625 24.375 27.5 26.875 27.875 29.6875C27.9375 30.1875 27.9375 30.6875 27.9375 31.1875C27.9375 32.1875 27.125 33 26.125 33H24.875H3.0625H1.8125C0.8125 33 0 32.1875 0 31.1875C0 30.6875 0 30.1875 0.0625 29.6875ZM6 9C6 6.1875 7.5 3.5625 10 2.125C12.4375 0.6875 15.5 0.6875 18 2.125C20.4375 3.5625 22 6.1875 22 9C22 11.875 20.4375 14.5 18 15.9375C15.5 17.375 12.4375 17.375 10 15.9375C7.5 14.5 6 11.875 6 9ZM19 9C19 7.25 18 5.625 16.5 4.6875C14.9375 3.8125 13 3.8125 11.5 4.6875C9.9375 5.625 9 7.25 9 9C9 10.8125 9.9375 12.4375 11.5 13.375C13 14.25 14.9375 14.25 16.5 13.375C18 12.4375 19 10.8125 19 9ZM11.125 23C8.125 23 5.5 24.625 4.125 27C3.5625 27.9375 3.1875 28.9375 3.0625 30H6.125H21.875H24.875C24.875 29.875 24.875 29.6875 24.8125 29.5C24.625 28.625 24.3125 27.8125 23.8125 27C22.4375 24.625 19.8125 23 16.8125 23H11.125ZM38.0625 33H29.5C29.8125 32.5 30 31.875 30 31.1875C30 27.125 28.125 23.5 25.25 21.0625C25.5 21.0625 25.75 21 26.0625 21H29.875C35.4375 21 40 25.5625 40 31.125C40 32.1875 39.125 33 38.0625 33ZM27 17C25.0625 17 23.3125 16.25 22 15C23.25 13.3125 24 11.25 24 9C24 7.375 23.5625 5.75 22.8125 4.375C24 3.5625 25.4375 3 27 3C30.8125 3 34 6.1875 34 10C34 13.875 30.8125 17 27 17Z" fill="#E9EBF1"/>
<path d="M8 9C8 11.1875 9.125 13.125 11 14.25C12.8125 15.3125 15.125 15.3125 17 14.25C18.8125 13.125 20 11.1875 20 9C20 6.875 18.8125 4.9375 17 3.8125C15.125 2.75 12.8125 2.75 11 3.8125C9.125 4.9375 8 6.875 8 9ZM16.8125 22H11.125C6.125 22 2.0625 26.0625 2 31H26C25.875 26.0625 21.8125 22 16.8125 22ZM14 17C11.125 17 8.5 15.5 7.0625 13C5.625 10.5625 5.625 7.5 7.0625 5C8.5 2.5625 11.125 1 14 1C16.8125 1 19.4375 2.5625 20.875 5C22.3125 7.5 22.3125 10.5625 20.875 13C19.4375 15.5 16.8125 17 14 17ZM11.125 20H16.8125C23 20 28 25 28 31.1875C28 32.1875 27.125 33 26.125 33H1.8125C0.8125 33 0 32.1875 0 31.1875C0 25 4.9375 20 11.125 20ZM38.0625 33H29.5C29.8125 32.5 30 31.875 30 31.1875C30 31.125 30 31.0625 30 31H38C37.9375 26.625 34.3125 23 29.875 23H27.125C26.5625 22.3125 25.9375 21.625 25.25 21.0625C25.5 21.0625 25.75 21 26.0625 21H29.875C35.4375 21 40 25.5625 40 31.125C40 32.1875 39.125 33 38.0625 33ZM27 17C25.0625 17 23.3125 16.25 22 15C22.4375 14.4375 22.8125 13.8125 23.0625 13.1875C24 14.3125 25.375 15 27 15C29.75 15 32 12.8125 32 10C32 7.25 29.75 5 27 5C25.6875 5 24.5 5.5 23.625 6.3125C23.4375 5.625 23.125 5 22.8125 4.375C24 3.5625 25.4375 3 27 3C30.8125 3 34 6.1875 34 10C34 13.875 30.8125 17 27 17Z" fill="#999FB5"/>
</svg>
