<svg width="38" height="32" viewBox="0 0 38 32" fill="none" xmlns="http://www.w3.org/2000/svg">
<path d="M35.1875 6.5C37.0625 9.4375 35.4375 13.5 31.9375 14C31.6875 14 31.4375 14 31.1875 14C29.5625 14 28.125 13.3125 27.125 12.1875C26.125 13.3125 24.6875 14 23.0625 14C21.4375 14 19.9375 13.3125 18.9375 12.1875C18 13.3125 16.5 14 14.875 14C13.25 14 11.8125 13.3125 10.8125 12.1875C9.8125 13.3125 8.375 14 6.75 14C6.5 14 6.25 14 6 14C2.5 13.5 0.875 9.4375 2.75 6.5L6.3125 0.875C6.625 0.3125 7.1875 0 7.8125 0H30.125C30.75 0 31.3125 0.3125 31.625 0.875L35.1875 6.5ZM32.1875 15.9375C32.5 15.9375 32.75 15.875 33 15.8125V24V28C33 30.25 31.1875 32 29 32H9C6.75 32 5 30.25 5 28V24V15.8125C5.1875 15.875 5.4375 15.9375 5.75 15.9375C6.0625 16 6.375 16 6.75 16C7.5 16 8.25 15.9375 9 15.6875V24H29V15.6875C29.6875 15.9375 30.4375 16 31.1875 16C31.5 16 31.875 16 32.1875 15.9375Z" fill="#EFF4FF"/>
<path d="M27.9375 12.9375C27.625 12.75 27.375 12.5 27.125 12.1875C26.875 12.5 26.625 12.75 26.3125 12.9375C25.375 13.625 24.25 14 23.0625 14C21.8125 14 20.6875 13.625 19.8125 12.9375C19.5 12.75 19.1875 12.5 18.9375 12.1875C18.6875 12.5 18.4375 12.75 18.125 12.9375C17.25 13.625 16.125 14 14.875 14C13.6875 14 12.5625 13.625 11.625 12.9375C11.3125 12.75 11.0625 12.5 10.8125 12.1875C10.5625 12.5 10.3125 12.75 10 12.9375C9.0625 13.625 7.9375 14 6.75 14C6.5 14 6.25 14 6 14C2.5 13.5 0.875 9.4375 2.75 6.5L6.3125 0.875C6.625 0.3125 7.1875 0 7.8125 0H30.125C30.75 0 31.3125 0.3125 31.625 0.875L35.1875 6.5C37.0625 9.4375 35.4375 13.5 31.9375 14C31.6875 14 31.4375 14 31.1875 14C29.9375 14 28.8125 13.625 27.9375 12.9375ZM30 2H7.9375L4.4375 7.5625C3.25 9.4375 4.4375 11.75 6.25 12C6.4375 12 6.5625 12 6.75 12C7.75 12 8.6875 11.5625 9.3125 10.875C9.6875 10.4375 10.25 10.1875 10.8125 10.1875C11.375 10.1875 11.9375 10.4375 12.3125 10.875C12.9375 11.5625 13.875 12 14.875 12C15.9375 12 16.8125 11.5625 17.5 10.875C17.875 10.4375 18.375 10.1875 18.9375 10.1875C19.5 10.1875 20.0625 10.4375 20.4375 10.875C21.0625 11.5625 22 12 23.0625 12C24.0625 12 25 11.5625 25.625 10.875C26 10.4375 26.5625 10.1875 27.125 10.1875C27.6875 10.1875 28.1875 10.4375 28.5625 10.875C29.25 11.5625 30.125 12 31.1875 12C31.375 12 31.5 12 31.6875 12C33.5 11.75 34.6875 9.4375 33.5 7.5625L30 2ZM7 17V22H31V17C31 16.5 31.4375 16 32 16C32.5 16 33 16.5 33 17V28C33 30.25 31.1875 32 29 32H9C6.75 32 5 30.25 5 28V17C5 16.5 5.4375 16 6 16C6.5 16 7 16.5 7 17ZM7 28C7 29.125 7.875 30 9 30H29C30.0625 30 31 29.125 31 28V24H7V28Z" fill="#2365EA"/>
</svg>
