<svg width="32" height="32" viewBox="0 0 32 32" fill="none" xmlns="http://www.w3.org/2000/svg">
<path d="M6 0H24C26.1875 0 28 1.8125 28 4V28C28 30.25 26.1875 32 24 32H6C3.75 32 2 30.25 2 28V4C2 1.8125 3.75 0 6 0ZM13 18C10.1875 18 8 20.25 8 23C8 23.5625 8.4375 24 9 24H21C21.5 24 22 23.5625 22 23C22 20.25 19.75 18 17 18H13ZM19 12C19 9.8125 17.1875 8 15 8C12.75 8 11 9.8125 11 12C11 14.25 12.75 16 15 16C17.1875 16 19 14.25 19 12ZM32 5V9C32 9.5625 31.5 10 31 10C30.4375 10 30 9.5625 30 9V5C30 4.5 30.4375 4 31 4C31.5 4 32 4.5 32 5ZM31 12C31.5 12 32 12.5 32 13V17C32 17.5625 31.5 18 31 18C30.4375 18 30 17.5625 30 17V13C30 12.5 30.4375 12 31 12ZM32 21V25C32 25.5625 31.5 26 31 26C30.4375 26 30 25.5625 30 25V21C30 20.5 30.4375 20 31 20C31.5 20 32 20.5 32 21Z" fill="#EFF4FF"/>
<path d="M17 18C19.75 18 22 20.25 22 23C22 23.5625 21.5 24 21 24C20.4375 24 20 23.5625 20 23C20 21.375 18.625 20 17 20H13C11.3125 20 10 21.375 10 23C10 23.5625 9.5 24 9 24C8.4375 24 8 23.5625 8 23C8 20.25 10.1875 18 13 18H17ZM31 12C31.5 12 32 12.5 32 13V17C32 17.5625 31.5 18 31 18H30V12H31ZM15 16C12.75 16 11 14.25 11 12C11 9.8125 12.75 8 15 8C17.1875 8 19 9.8125 19 12C19 14.25 17.1875 16 15 16ZM15 10C13.875 10 13 10.9375 13 12C13 13.125 13.875 14 15 14C16.0625 14 17 13.125 17 12C17 10.9375 16.0625 10 15 10ZM31 20C31.5 20 32 20.5 32 21V25C32 25.5625 31.5 26 31 26H30V20H31ZM31 4C31.5 4 32 4.5 32 5V9C32 9.5625 31.5 10 31 10H30V4H31ZM24 0C26.1875 0 28 1.8125 28 4V28C28 30.25 26.1875 32 24 32H6C3.75 32 2 30.25 2 28V4C2 1.8125 3.75 0 6 0H24ZM26 28V4C26 2.9375 25.0625 2 24 2H6C4.875 2 4 2.9375 4 4V28C4 29.125 4.875 30 6 30H24C25.0625 30 26 29.125 26 28Z" fill="#2365EA"/>
</svg>
