<svg width="40" height="32" viewBox="0 0 40 32" fill="none" xmlns="http://www.w3.org/2000/svg">
<path d="M16 0H36C38.1875 0 40 1.8125 40 4V18C40 20.25 38.1875 22 36 22H16C13.75 22 12 20.25 12 18V4C12 1.8125 13.75 0 16 0ZM29.75 6.6875C29.4375 6.25 29 6 28.5 6C28 6 27.5 6.25 27.25 6.6875L23.75 11.9375L22.625 10.5625C22.375 10.25 21.9375 10 21.5 10C21 10 20.5625 10.25 20.3125 10.5625L16.3125 15.5625C15.9375 16.0625 15.875 16.6875 16.125 17.1875C16.375 17.6875 16.875 18 17.5 18H22.5H25.5H34.5C35 18 35.5625 17.75 35.8125 17.25C36.0625 16.75 36 16.125 35.75 15.6875L29.75 6.6875ZM21 6C21 4.9375 20.0625 4 19 4C17.875 4 17 4.9375 17 6C17 7.125 17.875 8 19 8C20.0625 8 21 7.125 21 6ZM4 8H10V24V26C10 27.125 10.875 28 12 28H20C21.0625 28 22 27.125 22 26V24H32V28C32 30.25 30.1875 32 28 32H4C1.75 32 0 30.25 0 28V12C0 9.8125 1.75 8 4 8ZM4.5 12C3.9375 12 3.5 12.5 3.5 13V14C3.5 14.5625 3.9375 15 4.5 15H5.5C6 15 6.5 14.5625 6.5 14V13C6.5 12.5 6 12 5.5 12H4.5ZM4.5 18.5C3.9375 18.5 3.5 19 3.5 19.5V20.5C3.5 21.0625 3.9375 21.5 4.5 21.5H5.5C6 21.5 6.5 21.0625 6.5 20.5V19.5C6.5 19 6 18.5 5.5 18.5H4.5ZM4.5 25C3.9375 25 3.5 25.5 3.5 26V27C3.5 27.5625 3.9375 28 4.5 28H5.5C6 28 6.5 27.5625 6.5 27V26C6.5 25.5 6 25 5.5 25H4.5ZM25.5 26V27C25.5 27.5625 25.9375 28 26.5 28H27.5C28 28 28.5 27.5625 28.5 27V26C28.5 25.5 28 25 27.5 25H26.5C25.9375 25 25.5 25.5 25.5 26Z" fill="#EFF4FF"/>
<path d="M36 2H16C14.875 2 14 2.9375 14 4V14.625L18.5625 10C19.3125 9.25 20.625 9.25 21.375 10L24 12.625L30.5625 6C31.3125 5.25 32.625 5.25 33.375 6L38 10.625V4C38 2.9375 37.0625 2 36 2ZM40 13C40 13 40 13 40 13.0625V18.0625C40 20.25 38.1875 22.0625 36 22.0625H17H16C13.75 22.0625 12 20.25 12 18.0625V17V4C12 1.8125 13.75 0 16 0H36C38.1875 0 40 1.8125 40 4V13ZM38 13.4375L32 7.4375L24.6875 14.75L19.375 20H36C37.0625 20 38 19.125 38 18V13.4375ZM16.5625 20L22.5625 14L20 11.4375L14 17.4375V18C14 19.125 14.875 20 16 20H16.5625ZM18.5 5C19.3125 5 20 5.6875 20 6.5C20 7.375 19.3125 8 18.5 8C17.625 8 17 7.375 17 6.5C17 5.6875 17.625 5 18.5 5ZM8 10H10V12H8V17V25V30H24V24H26V30H28C29.0625 30 30 29.125 30 28V24H32V28C32 30.25 30.1875 32 28 32H26H25H24H8H7H6H4C1.75 32 0 30.25 0 28V14C0 11.8125 1.75 10 4 10H6H7H8ZM2 16H6V12H4C2.875 12 2 12.9375 2 14V16ZM2 26V28C2 29.125 2.875 30 4 30H6V26H2ZM6 24V18H2V24H6Z" fill="#2365EA"/>
</svg>
