<svg width="32" height="32" viewBox="0 0 32 32" fill="none" xmlns="http://www.w3.org/2000/svg">
<path d="M12 5C12 3.375 13.3125 2 15 2H17C18.625 2 20 3.375 20 5V27C20 28.6875 18.625 30 17 30H15C13.3125 30 12 28.6875 12 27V5ZM2 17C2 15.375 3.3125 14 5 14H7C8.625 14 10 15.375 10 17V27C10 28.6875 8.625 30 7 30H5C3.3125 30 2 28.6875 2 27V17ZM25 6H27C28.625 6 30 7.375 30 9V27C30 28.6875 28.625 30 27 30H25C23.3125 30 22 28.6875 22 27V9C22 7.375 23.3125 6 25 6Z" fill="#E9EBF1"/>
<path d="M17 2C18.625 2 20 3.375 20 5V27C20 28.6875 18.625 30 17 30H15C13.3125 30 12 28.6875 12 27V5C12 3.375 13.3125 2 15 2H17ZM17 4H15C14.4375 4 14 4.5 14 5V27C14 27.5625 14.4375 28 15 28H17C17.5 28 18 27.5625 18 27V5C18 4.5 17.5 4 17 4ZM7 14C8.625 14 10 15.375 10 17V27C10 28.6875 8.625 30 7 30H5C3.3125 30 2 28.6875 2 27V17C2 15.375 3.3125 14 5 14H7ZM7 16H5C4.4375 16 4 16.5 4 17V27C4 27.5625 4.4375 28 5 28H7C7.5 28 8 27.5625 8 27V17C8 16.5 7.5 16 7 16ZM22 9C22 7.375 23.3125 6 25 6H27C28.625 6 30 7.375 30 9V27C30 28.6875 28.625 30 27 30H25C23.3125 30 22 28.6875 22 27V9ZM24 9V27C24 27.5625 24.4375 28 25 28H27C27.5 28 28 27.5625 28 27V9C28 8.5 27.5 8 27 8H25C24.4375 8 24 8.5 24 9Z" fill="#999FB5"/>
</svg>
