<svg width="22" viewBox="0 0 38 33" fill="none" xmlns="http://www.w3.org/2000/svg">
<path d="M36.9375 17C36.9375 18.125 36 19 34.9375 19H32.9375L33 29C33 29.1875 33 29.375 33 29.5V30.5C33 31.9375 31.875 33 30.5 33H29.5C29.375 33 29.3125 33 29.25 33C29.1875 33 29.0625 33 29 33H27H25.5C24.0625 33 23 31.9375 23 30.5V29V25C23 23.9375 22.0625 23 21 23H17C15.875 23 15 23.9375 15 25V29V30.5C15 31.9375 13.875 33 12.5 33H11H9C8.875 33 8.8125 33 8.6875 33C8.625 33 8.5625 33 8.5 33H7.5C6.0625 33 5 31.9375 5 30.5V23.5C5 23.5 5 23.4375 5 23.375V19H3C1.875 19 1 18.125 1 17C1 16.4375 1.1875 15.9375 1.625 15.5L17.625 1.5C18.0625 1.0625 18.5625 1 19 1C19.4375 1 19.9375 1.125 20.3125 1.4375L36.25 15.5C36.75 15.9375 37 16.4375 36.9375 17Z" fill="#EFF4FF"/>
<path d="M36.625 16.25C37.0625 16.625 37.0625 17.25 36.6875 17.6875C36.375 18.125 35.75 18.125 35.3125 17.75L33 15.6875V28C33 30.8125 30.75 33 28 33H10C7.1875 33 5 30.8125 5 28V15.6875L2.625 17.75C2.1875 18.125 1.5625 18.125 1.25 17.6875C0.875 17.25 0.875 16.625 1.3125 16.25L18.3125 1.3125C18.6875 0.9375 19.25 0.9375 19.625 1.3125L36.625 16.25ZM10 31H14V21C14 19.9375 14.875 19 16 19H22C23.0625 19 24 19.9375 24 21V31H28C29.625 31 31 29.6875 31 28V13.9375L19 3.375L7 13.9375V28C7 29.6875 8.3125 31 10 31ZM16 31H22V21H16V31Z" fill="#2365EA"/>
</svg>
