<svg width="22" viewBox="0 0 32 32" fill="none" xmlns="http://www.w3.org/2000/svg">
<path d="M12 4H10C9.4375 4 9 4.5 9 5V27C9 27.5625 9.4375 28 10 28H22C22.5 28 23 27.5625 23 27V5C23 4.5 22.5 4 22 4H20V5C20 5.5625 19.5 6 19 6H13C12.4375 6 12 5.5625 12 5V4ZM10 0H22C24.75 0 27 2.25 27 5V27C27 29.8125 24.75 32 22 32H10C7.1875 32 5 29.8125 5 27V5C5 2.25 7.1875 0 10 0ZM12 25C12 24.5 12.4375 24 13 24H19C19.5 24 20 24.5 20 25C20 25.5625 19.5 26 19 26H13C12.4375 26 12 25.5625 12 25Z" fill="#EFF4FF"/>
<path d="M22 0C24.1875 0 26 1.8125 26 4V28C26 30.25 24.1875 32 22 32H10C7.75 32 6 30.25 6 28V4C6 1.8125 7.75 0 10 0H22ZM14 2V3H18V2H14ZM24 28V4C24 2.9375 23.0625 2 22 2H20V3C20 4.125 19.0625 5 18 5H14C12.875 5 12 4.125 12 3V2H10C8.875 2 8 2.9375 8 4V28C8 29.125 8.875 30 10 30H22C23.0625 30 24 29.125 24 28ZM18 25C18.5 25 19 25.5 19 26C19 26.5625 18.5 27 18 27H14C13.4375 27 13 26.5625 13 26C13 25.5 13.4375 25 14 25H18Z" fill="#2365EA"/>
</svg>
