<svg width="20" viewBox="0 0 32 33" fill="none" xmlns="http://www.w3.org/2000/svg">
<path d="M4 0H28C30.1875 0 32 1.8125 32 4V22C32 24.25 30.1875 26 28 26H19.3125L11.5625 31.8125C11.25 32.0625 10.875 32.0625 10.5 31.9375C10.1875 31.75 10 31.4375 10 31V26H4C1.75 26 0 24.25 0 22V4C0 1.8125 1.75 0 4 0Z" fill="#EFF4FF"/>
<path d="M10 24C11.0625 24 12 24.9375 12 26V29L18.125 24.4375C18.4375 24.1875 18.875 24 19.3125 24H28C29.0625 24 30 23.125 30 22V4C30 2.9375 29.0625 2 28 2H4C2.875 2 2 2.9375 2 4V22C2 23.125 2.875 24 4 24H10ZM0 4C0 1.8125 1.75 0 4 0H28C30.1875 0 32 1.8125 32 4V22C32 24.25 30.1875 26 28 26H19.3125L11.5625 31.8125C11.25 32.0625 10.875 32.0625 10.5 31.9375C10.1875 31.75 10 31.4375 10 31V28V26H8H4C1.75 26 0 24.25 0 22V4Z" fill="#2365EA"/>
</svg>
