<svg width="32" height="33" viewBox="0 0 32 33" fill="none" xmlns="http://www.w3.org/2000/svg">
<path d="M21 9C21 7.25 20 5.625 18.5 4.6875C16.9375 3.8125 15 3.8125 13.5 4.6875C11.9375 5.625 11 7.25 11 9C11 10.8125 11.9375 12.4375 13.5 13.375C15 14.25 16.9375 14.25 18.5 13.375C20 12.4375 21 10.8125 21 9ZM8 9C8 6.1875 9.5 3.5625 12 2.125C14.4375 0.6875 17.5 0.6875 20 2.125C22.4375 3.5625 24 6.1875 24 9C24 11.875 22.4375 14.5 20 15.9375C17.5 17.375 14.4375 17.375 12 15.9375C9.5 14.5 8 11.875 8 9ZM5.0625 30H26.875C26.3125 26.0625 22.9375 23 18.8125 23H13.125C9 23 5.625 26.0625 5.0625 30ZM2 31.1875C2 25 6.9375 20 13.125 20H18.8125C25 20 30 25 30 31.1875C30 32.1875 29.125 33 28.125 33H3.8125C2.8125 33 2 32.1875 2 31.1875Z" fill="#EFF4FF"/>
<path d="M22 9C22 6.875 20.8125 4.9375 19 3.8125C17.125 2.75 14.8125 2.75 13 3.8125C11.125 4.9375 10 6.875 10 9C10 11.1875 11.125 13.125 13 14.25C14.8125 15.3125 17.125 15.3125 19 14.25C20.8125 13.125 22 11.1875 22 9ZM8 9C8 6.1875 9.5 3.5625 12 2.125C14.4375 0.6875 17.5 0.6875 20 2.125C22.4375 3.5625 24 6.1875 24 9C24 11.875 22.4375 14.5 20 15.9375C17.5 17.375 14.4375 17.375 12 15.9375C9.5 14.5 8 11.875 8 9ZM4 31H28C27.875 26.0625 23.8125 22 18.8125 22H13.125C8.125 22 4.0625 26.0625 4 31ZM2 31.1875C2 25 6.9375 20 13.125 20H18.8125C25 20 30 25 30 31.1875C30 32.1875 29.125 33 28.125 33H3.8125C2.8125 33 2 32.1875 2 31.1875Z" fill="#2365EA"/>
</svg>
