<svg width="32" height="32" viewBox="0 0 32 32" fill="none" xmlns="http://www.w3.org/2000/svg">
<path d="M2 5C2 3.375 3.3125 2 5 2.0625H14.3125C15.375 2.0625 16.375 2.4375 17.125 3.1875L28.125 14.1875C29.6875 15.75 29.6875 18.3125 28.125 19.875L19.8125 28.1875C18.25 29.75 15.6875 29.75 14.125 28.1875L3.125 17.1875C2.375 16.4375 2 15.4375 2 14.375V5ZM9 11C10.0625 11 11 10.125 11 9C11 7.9375 10.0625 7 9 7C7.875 7 7 7.9375 7 9C7 10.125 7.875 11 9 11Z" fill="#E9EBF1"/>
<path d="M7.5 9C7.5 8.1875 8.125 7.5 9 7.5C9.8125 7.5 10.5 8.1875 10.5 9C10.5 9.875 9.8125 10.5 9 10.5C8.125 10.5 7.5 9.875 7.5 9ZM2 5C2 3.375 3.3125 2 5 2H14.3125C15.375 2 16.375 2.4375 17.125 3.1875L28.125 14.1875C29.6875 15.75 29.6875 18.3125 28.125 19.875L19.8125 28.1875C18.25 29.75 15.6875 29.75 14.125 28.1875L3.125 17.1875C2.375 16.4375 2 15.4375 2 14.375V5ZM4.5625 15.8125L15.5625 26.8125C16.3125 27.5625 17.625 27.5625 18.375 26.8125L26.75 18.4375C27.5 17.6875 27.5 16.375 26.75 15.625L15.75 4.625C15.375 4.25 14.8125 4 14.3125 4H5C4.4375 4 4 4.5 4 5V14.375C4 14.875 4.1875 15.4375 4.5625 15.8125ZM4.5625 15.8125L3.125 17.1875L4.5625 15.8125Z" fill="#999FB5"/>
</svg>
