<svg width="32" height="32" viewBox="0 0 32 32" fill="none" xmlns="http://www.w3.org/2000/svg">
<path d="M22.9375 25.8125L19.3125 22.1875C18.3125 22.75 17.1875 23 16 23C14.75 23 13.625 22.75 12.625 22.1875L9 25.8125C11 27.1875 13.375 28 16 28C18.5625 28 20.9375 27.1875 22.9375 25.8125ZM28.625 25.8125L29.375 26.625C30.1875 27.375 30.1875 28.6875 29.375 29.4375C28.625 30.25 27.3125 30.25 26.5625 29.4375L25.8125 28.6875C23.0625 30.75 19.6875 32 16 32C12.25 32 8.875 30.75 6.1875 28.6875L5.375 29.4375C4.625 30.25 3.3125 30.25 2.5625 29.4375C1.75 28.6875 1.75 27.375 2.5625 26.625L3.3125 25.8125C1.25 23.125 0 19.75 0 16C0 12.3125 1.25 8.9375 3.3125 6.1875L2.5625 5.4375C1.75 4.6875 1.75 3.375 2.5625 2.625C3.3125 1.8125 4.625 1.8125 5.375 2.625L6.1875 3.375C8.875 1.3125 12.25 0 16 0C19.6875 0 23.0625 1.3125 25.8125 3.375L26.5625 2.625C27.3125 1.8125 28.625 1.8125 29.375 2.625C30.1875 3.375 30.1875 4.6875 29.375 5.4375L28.625 6.1875C30.6875 8.9375 32 12.3125 32 16C32 19.75 30.6875 23.125 28.625 25.8125ZM25.75 23C27.125 21 28 18.625 28 16C28 13.4375 27.125 11.0625 25.75 9.0625L22.125 12.6875C22.6875 13.6875 23 14.8125 23 16C23 17.25 22.6875 18.375 22.125 19.375L25.75 23ZM22.9375 6.25C20.9375 4.875 18.5625 4 16 4C13.375 4 11 4.875 9 6.25L12.625 9.875C13.625 9.3125 14.75 9 15.9375 9C17.1875 9 18.3125 9.3125 19.3125 9.875L22.9375 6.25ZM9.8125 19.375C9.25 18.375 9 17.25 9 16.0625C9 14.8125 9.25 13.6875 9.8125 12.6875L6.1875 9.0625C4.8125 11.0625 4 13.4375 4 16C4 18.625 4.8125 21 6.1875 23L9.8125 19.375ZM19 16C19 14.375 17.625 13 16 13C14.3125 13 13 14.375 13 16C13 17.6875 14.3125 19 16 19C17.625 19 19 17.6875 19 16Z" fill="#EFF4FF"/>
<path d="M28.6875 27.3125C29.0625 27.6875 29.0625 28.375 28.6875 28.75C28.3125 29.125 27.625 29.125 27.25 28.75L26.5625 28C23.75 30.5 20 32 16 32C11.9375 32 8.1875 30.5 5.375 28L4.6875 28.75C4.3125 29.125 3.625 29.125 3.25 28.75C2.875 28.375 2.875 27.6875 3.25 27.3125L4 26.625C1.5 23.8125 0 20.0625 0 16C0 12 1.5 8.25 4 5.4375L3.25 4.75C2.875 4.375 2.875 3.6875 3.25 3.3125C3.625 2.9375 4.3125 2.9375 4.6875 3.3125L5.375 4.0625C8.1875 1.5625 11.9375 0 16 0C20 0 23.75 1.5625 26.5625 4.0625L27.25 3.3125C27.625 2.9375 28.3125 2.9375 28.6875 3.3125C29.0625 3.6875 29.0625 4.375 28.6875 4.75L27.9375 5.4375C30.4375 8.25 32 12 32 16C32 20.0625 30.4375 23.8125 27.9375 26.625L28.6875 27.3125ZM19.4375 20.9375C18.4375 21.625 17.25 22 16 22C14.6875 22 13.5 21.625 12.5 20.9375L6.8125 26.625C9.25 28.75 12.4375 30 16 30C19.5 30 22.6875 28.75 25.125 26.625L19.4375 20.9375ZM30 16C30 12.5 28.6875 9.3125 26.5625 6.875L20.875 12.5625C21.5625 13.5625 22 14.75 22 16C22 17.3125 21.5625 18.5 20.875 19.5L26.5625 25.1875C28.6875 22.75 30 19.5625 30 16ZM16 2C12.4375 2 9.25 3.3125 6.8125 5.4375L12.5 11.125C13.5 10.4375 14.6875 10 16 10C17.25 10 18.4375 10.4375 19.4375 11.125L25.125 5.4375C22.6875 3.3125 19.5 2 16 2ZM11.0625 19.5C10.375 18.5 10 17.3125 10 16C10 14.75 10.375 13.5625 11.0625 12.5625L5.375 6.875C3.25 9.3125 2 12.5 2 16C2 19.5625 3.25 22.75 5.375 25.1875L11.0625 19.5ZM16 12C13.75 12 12 13.8125 12 16C12 18.25 13.75 20 16 20C18.1875 20 20 18.25 20 16C20 13.8125 18.1875 12 16 12Z" fill="#2365EA"/>
</svg>
