<svg width="22" viewBox="0 0 32 32" fill="none" xmlns="http://www.w3.org/2000/svg">
<path d="M12 7V10H20V7C20 4.8125 18.1875 3 16 3C13.75 3 12 4.8125 12 7ZM9 10V7C9 3.1875 12.125 0 16 0C19.8125 0 23 3.1875 23 7V10H27C28.625 10 30 11.375 30 13V26C30 29.3125 27.3125 32 24 32H8C4.6875 32 2 29.3125 2 26V13C2 11.375 3.3125 10 5 10H9ZM10.5 16C11.3125 16 12 15.375 12 14.5C12 13.6875 11.3125 13 10.5 13C9.625 13 9 13.6875 9 14.5C9 15.375 9.625 16 10.5 16ZM23 14.5C23 13.6875 22.3125 13 21.5 13C20.625 13 20 13.6875 20 14.5C20 15.375 20.625 16 21.5 16C22.3125 16 23 15.375 23 14.5Z" fill="#E9EBF1"/>
<path d="M10 8V6C10 2.6875 12.625 0 16 0C19.3125 0 22 2.6875 22 6V8H27C28.625 8 30 9.375 30 11V26C30 29.3125 27.3125 32 24 32H8C4.625 32 2 29.3125 2 26V11C2 9.375 3.3125 8 5 8H10ZM12 8H20V6C20 3.8125 18.1875 2 16 2C13.75 2 12 3.8125 12 6V8ZM5 10C4.4375 10 4 10.5 4 11V26C4 28.25 5.75 30 8 30H24C26.1875 30 28 28.25 28 26V11C28 10.5 27.5 10 27 10H22V15C22 15.5625 21.5 16 21 16C20.4375 16 20 15.5625 20 15V10H12V15C12 15.5625 11.5 16 11 16C10.4375 16 10 15.5625 10 15V10H5Z" fill="#999FB5"/>
</svg>
