<svg width="24" viewBox="0 0 32 32" fill="none" xmlns="http://www.w3.org/2000/svg">
<path d="M30.9375 10.4375C31.1875 11 31 11.5625 30.5625 12L27.875 14.4375C27.9375 14.9375 27.9375 15.5 27.9375 16C27.9375 16.5625 27.9375 17.125 27.875 17.625L30.5625 20.0625C31 20.4375 31.1875 21.0625 30.9375 21.625C30.6875 22.375 30.375 23.0625 30 23.75L29.6875 24.25C29.25 24.9375 28.8125 25.625 28.3125 26.1875C27.9375 26.6875 27.3125 26.8125 26.75 26.625L23.3125 25.5625C22.4375 26.1875 21.5 26.6875 20.5625 27.125L19.75 30.6875C19.625 31.25 19.1875 31.6875 18.625 31.8125C17.75 31.9375 16.875 32 15.9375 32C15.0625 32 14.1875 31.9375 13.3125 31.8125C12.75 31.6875 12.3125 31.25 12.1875 30.6875L11.375 27.125C10.375 26.6875 9.5 26.1875 8.625 25.5625L5.1875 26.625C4.625 26.8125 4 26.6875 3.625 26.25C3.125 25.625 2.6875 24.9375 2.25 24.25L1.9375 23.75C1.5625 23.0625 1.25 22.375 1 21.625C0.75 21.0625 0.9375 20.5 1.375 20.0625L4.0625 17.625C4 17.125 4 16.5625 4 16C4 15.5 4 14.9375 4.0625 14.4375L1.375 12C0.9375 11.5625 0.75 11 1 10.4375C1.25 9.6875 1.5625 9 1.9375 8.3125L2.25 7.8125C2.6875 7.125 3.125 6.4375 3.625 5.8125C4 5.375 4.625 5.25 5.1875 5.4375L8.625 6.5C9.5 5.875 10.4375 5.3125 11.375 4.9375L12.1875 1.375C12.3125 0.8125 12.75 0.375 13.3125 0.25C14.1875 0.125 15.0625 0 16 0C16.875 0 17.75 0.125 18.625 0.25C19.1875 0.3125 19.625 0.8125 19.75 1.375L20.5625 4.9375C21.5625 5.3125 22.4375 5.875 23.3125 6.5L26.75 5.4375C27.3125 5.25 27.9375 5.375 28.3125 5.8125C28.8125 6.4375 29.25 7.125 29.6875 7.8125L30 8.3125C30.375 9 30.6875 9.6875 31 10.4375H30.9375ZM16 21C18.75 21 21 18.8125 21 16C21 13.25 18.75 11 16 11C13.1875 11 11 13.25 11 16C11 18.8125 13.1875 21 16 21Z" fill="#E9EBF1"/>
<path d="M10.5 16C10.5 13 12.9375 10.5 16 10.5C19 10.5 21.5 13 21.5 16C21.5 19.0625 19 21.5 16 21.5C12.9375 21.5 10.5 19.0625 10.5 16ZM16 12.5C14.0625 12.5 12.5 14.125 12.5 16C12.5 17.9375 14.0625 19.5 16 19.5C17.875 19.5 19.5 17.9375 19.5 16C19.5 14.125 17.875 12.5 16 12.5ZM4.0625 14.4375L1.5625 12.125C0.875 11.5 0.6875 10.5 1.1875 9.6875L3.0625 6.375C3.5 5.5625 4.5 5.1875 5.375 5.5L8.625 6.5C9.5 5.875 10.4375 5.3125 11.375 4.9375L12.125 1.625C12.3125 0.6875 13.125 0 14.0625 0H17.875C18.8125 0 19.625 0.6875 19.8125 1.625L20.5625 4.9375C21.5 5.3125 22.4375 5.875 23.3125 6.5L26.5625 5.5C27.4375 5.1875 28.4375 5.5625 28.875 6.375L30.75 9.6875C31.25 10.5 31.0625 11.5 30.375 12.125L27.875 14.4375C27.9375 14.9375 28 15.5 28 16C28 16.5625 27.9375 17.125 27.875 17.625L30.375 19.9375C31.0625 20.5625 31.25 21.5625 30.75 22.375L28.875 25.6875C28.4375 26.5 27.4375 26.875 26.5625 26.5625L23.3125 25.5625C22.4375 26.1875 21.5 26.6875 20.5625 27.125L19.8125 30.4375C19.625 31.375 18.8125 32 17.875 32H14.0625C13.125 32 12.3125 31.375 12.125 30.4375L11.375 27.125C10.4375 26.6875 9.5 26.1875 8.625 25.5625L5.375 26.5625C4.5 26.875 3.5 26.5 3.0625 25.6875L1.1875 22.375C0.6875 21.5625 0.875 20.5625 1.5625 19.9375L4.0625 17.625C4 17.125 4 16.5625 4 16C4 15.5 4 14.9375 4.0625 14.4375ZM9.875 8.125L9.0625 8.75L4.8125 7.375L2.875 10.6875L6.1875 13.6875L6.0625 14.6875C6 15.125 6 15.5625 6 16C6 16.5 6 16.9375 6.0625 17.375L6.1875 18.375L2.875 21.375L4.8125 24.6875L9.0625 23.3125L9.875 23.9375C10.5625 24.5 11.3125 24.9375 12.1875 25.25L13.125 25.6875L14.0625 30H17.875L18.8125 25.6875L19.75 25.25C20.625 24.9375 21.375 24.5 22.0625 23.9375L22.875 23.3125L27.125 24.6875L29.0625 21.375L25.75 18.375L25.875 17.375C25.9375 16.9375 26 16.5 26 16C26 15.5625 25.9375 15.125 25.875 14.6875L25.75 13.6875L29.0625 10.6875L27.125 7.375L22.875 8.75L22.0625 8.125C21.375 7.5625 20.625 7.125 19.75 6.75L18.8125 6.375L17.875 2H14.0625L13.125 6.375L12.1875 6.75C11.3125 7.125 10.5625 7.5625 9.875 8.125Z" fill="#999FB5"/>
</svg>
