<svg width="33" height="32" viewBox="0 0 33 32" fill="none" xmlns="http://www.w3.org/2000/svg">
<path d="M1 6C1 3.8125 2.75 2 5 2H29C31.1875 2 33 3.8125 33 6V26C33 28.25 31.1875 30 29 30H5C2.75 30 1 28.25 1 26V6ZM21.1875 12.6875C20.9375 12.25 20.4375 12 20 12C19.5 12 19 12.25 18.75 12.6875L13.3125 20.6875L11.625 18.5625C11.375 18.25 10.9375 18 10.5 18C10 18 9.5625 18.25 9.3125 18.5625L5.3125 23.5625C4.9375 24.0625 4.875 24.6875 5.125 25.1875C5.375 25.6875 5.875 26 6.5 26H12.5H14.5H27.5C28 26 28.5625 25.75 28.8125 25.25C29.0625 24.75 29 24.125 28.6875 23.6875L21.1875 12.6875ZM8 12C9.625 12 11 10.6875 11 9C11 7.375 9.625 6 8 6C6.3125 6 5 7.375 5 9C5 10.6875 6.3125 12 8 12Z" fill="#EFF4FF"/>
<path d="M21.25 9.875L28.625 21.0625C29.0625 21.625 29.0625 22.375 28.75 23C28.4375 23.625 27.75 24 27.0625 24H6.875C6.1875 24 5.5 23.625 5.1875 23C4.875 22.3125 4.9375 21.5625 5.3125 21L9.375 15.375C10.0625 14.375 11.75 14.375 12.5 15.375L13.5 16.8125L18.0625 9.875C18.8125 8.8125 20.5625 8.8125 21.25 9.875ZM6.9375 22H26.9375L19.625 11L14.375 19.125C14.1875 19.375 13.875 19.5625 13.5625 19.5625C13.25 19.625 12.9375 19.4375 12.75 19.125L10.875 16.5625L6.9375 22ZM28.9375 2C31.1875 2 32.9375 3.8125 32.9375 6V26C32.9375 28.25 31.125 30 28.9375 30H4.9375C2.75 30 0.9375 28.25 0.9375 26V6C0.9375 3.8125 2.75 2 4.9375 2H28.9375ZM31 26V6C31 4.9375 30.0625 4 29 4H5C3.875 4 3 4.9375 3 6V26C3 27.125 3.875 28 5 28H29C30.0625 28 31 27.125 31 26ZM10 12C8.3125 12 7 10.6875 7 9C7 7.375 8.3125 6 10 6C11.625 6 13 7.375 13 9C13 10.6875 11.625 12 10 12ZM10 8C9.4375 8 9 8.5 9 9C9 9.5625 9.4375 10 10 10C10.5 10 10.9375 9.5625 10.9375 9C10.9375 8.5 10.5 8 10 8Z" fill="#2365EA"/>
</svg>
